<svg width="647" height="602" viewBox="0 0 647 602" fill="none" xmlns="http://www.w3.org/2000/svg">
<path opacity="0.1" d="M323.5 602C502.164 602 647 588.569 647 572C647 555.431 502.164 542 323.5 542C144.836 542 0 555.431 0 572C0 588.569 144.836 602 323.5 602Z" fill="#605BFF"/>
<path d="M509.787 268.439L502.52 269.552L510.929 324.46L518.196 323.347L509.787 268.439Z" fill="#FAB623"/>
<path d="M509.782 268.478L502.594 269.622L504.227 264.067L505.044 261.127L506.678 263.577L509.782 268.478Z" fill="#FF8C64"/>
<path d="M517.621 319.439L510.354 320.552L510.972 324.589L518.239 323.476L517.621 319.439Z" fill="#35252F"/>
<path d="M518.276 326.639L511.904 327.619C511.577 327.619 511.414 327.455 511.414 327.129L510.924 324.351L518.276 323.208L518.766 325.985C518.766 326.312 518.602 326.639 518.276 326.639Z" fill="#EF452F"/>
<path d="M506.677 263.577L504.227 264.067L505.043 261.127L506.677 263.577Z" fill="#35252F"/>
<path d="M510.373 320.555L517.641 319.442L517.195 316.535L509.928 317.648L510.373 320.555Z" fill="#F68407"/>
<path d="M504.717 272.072L510.925 312.752C510.925 313.079 511.252 313.242 511.578 313.242C511.905 313.242 512.069 312.915 512.069 312.589L505.86 271.909C505.86 271.582 505.534 271.419 505.207 271.419C504.88 271.419 504.717 271.746 504.717 272.072Z" fill="#F68407"/>
<path d="M507.658 271.583L513.866 312.262C513.866 312.589 514.193 312.752 514.52 312.752C514.847 312.752 515.01 312.426 515.01 312.099L508.802 271.419C508.802 271.093 508.475 270.929 508.148 270.929C507.822 270.929 507.658 271.256 507.658 271.583Z" fill="#F68407"/>
<path d="M522.928 268.63L515.576 268.654L515.757 324.2L523.109 324.176L522.928 268.63Z" fill="#4F9D5C"/>
<path d="M523.016 268.64L515.664 268.804L518.115 263.412L519.258 260.798L520.565 263.412L523.016 268.64Z" fill="#FF8C64"/>
<path d="M523.174 320.255L515.822 320.279L515.836 324.363L523.187 324.339L523.174 320.255Z" fill="#35252F"/>
<path d="M522.69 327.455H516.318C515.991 327.455 515.828 327.292 515.828 326.965V324.188H523.18V326.965C523.18 327.292 523.016 327.455 522.69 327.455Z" fill="#EF452F"/>
<path d="M520.566 263.414H518.115L519.259 260.8L520.566 263.414Z" fill="#35252F"/>
<path d="M515.82 320.281L523.172 320.257L523.162 317.317L515.811 317.34L515.82 320.281Z" fill="#3C7341"/>
<path d="M517.459 271.418L517.622 312.587C517.622 312.914 517.949 313.078 518.112 313.078C518.439 313.078 518.603 312.751 518.603 312.587L518.439 271.418C518.439 271.091 518.112 270.928 517.949 270.928C517.786 270.928 517.459 271.091 517.459 271.418Z" fill="#3C7341"/>
<path d="M520.402 271.419L520.566 312.589C520.566 312.915 520.892 313.079 521.056 313.079C521.383 313.079 521.546 312.752 521.546 312.589L521.383 271.419C521.383 271.092 521.056 270.929 520.892 270.929C520.566 270.929 520.402 271.092 520.402 271.419Z" fill="#3C7341"/>
<path d="M535.73 269.476L528.451 268.442L520.636 323.438L527.915 324.473L535.73 269.476Z" fill="#1B6BFE"/>
<path d="M535.758 269.459L528.406 268.478L531.51 263.577L533.144 261.127L534.124 263.904L535.758 269.459Z" fill="#FF8C64"/>
<path d="M528.509 320.522L521.23 319.488L520.656 323.532L527.935 324.566L528.509 320.522Z" fill="#35252F"/>
<path d="M526.936 327.619L520.564 326.639C520.238 326.639 520.074 326.312 520.074 326.149L520.401 323.371L527.753 324.352L527.426 327.129C527.426 327.456 527.263 327.619 526.936 327.619Z" fill="#EF452F"/>
<path d="M534.124 263.904L531.51 263.577L533.143 261.127L534.124 263.904Z" fill="#35252F"/>
<path d="M521.182 319.371L528.461 320.406L528.875 317.494L521.596 316.46L521.182 319.371Z" fill="#1B48CA"/>
<path d="M529.876 271.419L524.158 312.099C524.158 312.426 524.322 312.752 524.648 312.752C524.975 312.752 525.302 312.589 525.302 312.262L531.02 271.583C531.02 271.256 530.856 270.929 530.53 270.929C530.203 270.929 529.876 271.093 529.876 271.419Z" fill="#1B48CA"/>
<path d="M532.654 271.909L526.936 312.589C526.936 312.916 527.099 313.242 527.426 313.242C527.752 313.242 528.079 313.079 528.079 312.752L533.797 272.073C533.797 271.746 533.634 271.419 533.307 271.419C532.98 271.256 532.817 271.583 532.654 271.909Z" fill="#1B48CA"/>
<path d="M538.21 290.697L537.72 293.638L537.393 296.415L536.903 300.5L536.577 303.114L535.923 307.361L535.596 309.975L535.106 314.06L534.78 316.673L534.289 320.921L533.963 323.535L533.309 327.783L532.982 330.233L532.656 332.521H503.739L503.412 330.233L503.085 327.783L502.595 323.535L502.269 320.921L501.778 316.673L501.452 314.06L500.798 309.975L500.471 307.361L499.981 303.114L499.655 300.5L499.165 296.415L498.838 293.638L498.348 290.697H538.21Z" fill="#EF452F"/>
<path d="M537.718 293.638L537.392 296.415H499.163L498.836 293.638H537.718Z" fill="#AD2F24"/>
<path d="M536.903 300.5L536.576 303.114H499.981L499.654 300.5H536.903Z" fill="#AD2F24"/>
<path d="M535.922 307.36L535.596 309.974H500.797L500.471 307.36H535.922Z" fill="#AD2F24"/>
<path d="M535.104 314.059L534.777 316.673H501.776L501.449 314.059H535.104Z" fill="#AD2F24"/>
<path d="M534.286 320.922L533.96 323.535H502.592L502.266 320.922H534.286Z" fill="#AD2F24"/>
<path d="M533.306 327.781L532.979 330.232H503.409L503.082 327.781H533.306Z" fill="#AD2F24"/>
<path d="M212.965 99.1667C238.68 99.1667 259.526 78.3206 259.526 52.6057C259.526 26.8908 238.68 6.0448 212.965 6.0448C187.25 6.0448 166.404 26.8908 166.404 52.6057C166.404 78.3206 187.25 99.1667 212.965 99.1667Z" fill="#FFCDB3"/>
<path d="M212.965 93.1219C238.68 93.1219 259.526 72.2759 259.526 46.561C259.526 20.846 238.68 0 212.965 0C187.25 0 166.404 20.846 166.404 46.561C166.404 72.2759 187.25 93.1219 212.965 93.1219Z" fill="#EF452F"/>
<path d="M212.965 84.4623C233.876 84.4623 250.867 67.4717 250.867 46.5601C250.867 25.6485 233.876 8.65784 212.965 8.65784C192.053 8.65784 175.062 25.6485 175.062 46.5601C175.062 67.4717 192.053 84.4623 212.965 84.4623Z" fill="white"/>
<path d="M175.062 46.5601C175.062 47.5403 175.063 48.5205 175.226 49.5008C176.696 30.0595 193.197 14.5392 212.965 14.5392C232.896 14.5392 249.233 29.8962 250.704 49.5008C250.704 48.5205 250.867 47.5403 250.867 46.5601C250.867 25.6485 233.876 8.65784 212.965 8.65784C192.053 8.65784 175.062 25.6485 175.062 46.5601Z" fill="#FFDECB"/>
<path d="M212.965 50.482C213.292 50.482 213.619 50.3186 213.782 50.1553L232.407 25.1594C232.733 24.6693 232.57 24.1792 232.243 23.8524C231.753 23.5257 231.263 23.689 230.936 24.0158L212.802 48.5216L192.054 39.3727C191.564 39.2094 191.074 39.3727 190.747 39.8629C190.583 40.353 190.747 40.8431 191.237 41.1698L212.475 50.482C212.639 50.482 212.802 50.482 212.965 50.482Z" fill="#35252F"/>
<path d="M492.164 301.607L453.268 433.049C451.479 438.862 446.114 442.885 440.153 442.885L282.183 443.332C273.838 443.332 267.131 436.328 267.578 427.982C268.025 420.233 274.434 414.123 282.183 414.123H342.54L390.974 279.401H475.473C487.097 279.401 495.442 290.578 492.164 301.607Z" fill="#FFD66B"/>
<path d="M394.401 425.598C374.565 425.598 358.485 425.331 358.485 425.002C358.485 424.672 374.565 424.406 394.401 424.406C414.236 424.406 430.316 424.672 430.316 425.002C430.316 425.331 414.236 425.598 394.401 425.598Z" fill="#263238"/>
<path d="M480.539 283.575C480.241 283.425 469.511 314.87 456.545 353.916C443.58 392.812 433.297 424.406 433.595 424.555C433.893 424.704 444.623 393.259 457.588 354.214C470.554 315.318 480.837 283.575 480.539 283.575Z" fill="#263238"/>
<path d="M365.044 559.724L374.73 559.426V442.886H365.044V559.724Z" fill="#FFD66B"/>
<path d="M414.67 559.127H325.104L365.64 545.118H375.326L414.67 559.127Z" fill="#FFD66B"/>
<path d="M437.322 249.147L422.568 323.214L425.251 378.802L325.551 362.26L329.426 313.677L329.575 273.439L305.134 320.83L286.059 284.02L320.931 220.981C327.339 214.424 334.791 209.506 343.733 206.227C348.054 204.588 352.674 203.694 358.039 203.545C369.514 207.121 380.99 207.121 392.614 203.545C393.955 203.694 395.892 203.843 398.426 204.141C398.575 204.141 398.724 204.141 398.873 204.141C420.035 206.674 436.13 224.26 437.322 245.571V249.147Z" fill="#605BFF"/>
<path d="M398.277 204.14C398.277 204.14 439.26 204.438 444.327 247.657L445.072 279.4L409.753 279.102L398.277 204.14Z" fill="#605BFF"/>
<path d="M300.365 259.729C300.365 260.027 332.555 260.325 372.346 260.325C412.136 260.325 444.326 260.027 444.326 259.729C444.326 259.43 412.136 259.132 372.346 259.132C332.555 259.132 300.365 259.43 300.365 259.729Z" fill="#FAFAFA"/>
<path d="M300.365 266.584C300.365 266.882 332.555 267.18 372.346 267.18C412.136 267.18 444.326 266.882 444.326 266.584C444.326 266.286 412.136 265.988 372.346 265.988C332.555 265.988 300.365 266.286 300.365 266.584Z" fill="#FAFAFA"/>
<path d="M302.749 254.066C302.749 254.364 334.492 254.662 373.538 254.662C412.583 254.662 444.326 254.364 444.326 254.066C444.326 253.768 412.583 253.47 373.538 253.47C334.343 253.47 302.749 253.768 302.749 254.066Z" fill="#FAFAFA"/>
<path d="M330.023 320.831C330.321 320.831 330.172 303.245 329.725 281.636C329.278 260.027 328.681 242.442 328.234 242.442C327.936 242.442 328.085 260.027 328.532 281.636C329.128 303.245 329.725 320.831 330.023 320.831Z" fill="#263238"/>
<path d="M344.031 292.366C344.031 292.366 324.658 293.707 321.23 298.923C317.802 303.99 312.437 318.595 314.375 318.744C316.461 318.893 317.802 317.701 317.802 317.701L323.167 308.312C323.167 308.312 322.273 317.403 325.552 317.552C328.682 317.701 344.479 320.831 344.479 320.831L344.031 292.366Z" fill="#FFBE9D"/>
<path d="M444.924 270.905V320.83C444.328 332.454 433.3 340.799 421.973 338.415L343.883 322.32L344.032 290.279L411.392 303.244L412.287 269.415L444.924 270.905Z" fill="#605BFF"/>
<path d="M400.364 334.392C400.364 334.392 400.066 334.243 399.321 334.094C398.576 333.945 397.533 333.647 396.34 333.349C393.658 332.753 389.783 332.007 384.865 330.964C374.88 328.878 360.872 326.046 344.18 322.619L344.628 323.066C344.628 313.081 344.628 301.904 344.628 290.131L344.031 290.727C348.502 291.621 353.122 292.515 357.742 293.409C377.414 297.135 395.893 300.712 411.392 303.692L411.988 303.841V303.245C411.541 288.342 411.094 275.973 410.796 267.18C410.647 262.858 410.498 259.58 410.349 257.195C410.349 256.152 410.2 255.258 410.2 254.513C410.2 253.917 410.051 253.619 410.051 253.619C410.051 253.619 410.051 253.917 410.051 254.513C410.051 255.258 410.051 256.003 410.051 257.195C410.051 259.58 410.2 263.007 410.2 267.329C410.349 276.122 410.647 288.491 411.094 303.394L411.69 302.947C396.191 299.966 377.712 296.39 358.04 292.515C353.271 291.621 348.651 290.727 344.329 289.833L343.733 289.683V290.28C343.733 302.053 343.733 313.081 343.733 323.215V323.662L344.18 323.811C360.872 327.09 374.88 329.772 384.865 331.709C389.783 332.604 393.658 333.349 396.34 333.796C397.682 333.945 398.576 334.243 399.47 334.392C400.066 334.392 400.364 334.392 400.364 334.392Z" fill="#263238"/>
<path d="M355.505 204.141C355.505 204.141 355.356 204.439 355.207 204.886C355.058 205.333 354.76 206.079 354.611 207.122C354.164 209.059 354.015 212.04 354.909 215.467C355.803 218.895 358.188 222.77 361.616 225.899C365.192 229.178 370.259 231.264 375.773 231.264C381.287 231.264 386.503 229.029 389.782 225.601C393.06 222.174 394.551 217.852 394.998 214.275C395.445 210.698 394.7 207.718 393.955 205.93C393.657 205.035 393.21 204.29 392.911 203.843C392.613 203.396 392.464 203.098 392.464 203.247C392.315 203.247 392.911 204.29 393.508 206.079C394.104 207.867 394.551 210.698 394.104 214.126C393.657 217.554 392.166 221.577 388.888 224.856C385.758 228.135 380.84 230.221 375.624 230.221C370.408 230.221 365.49 228.284 362.063 225.154C358.635 222.174 356.4 218.597 355.356 215.169C354.313 211.891 354.462 208.91 354.611 207.122C355.356 205.184 355.654 204.141 355.505 204.141Z" fill="#263238"/>
<path d="M351.779 324.854C351.928 324.854 351.928 322.917 351.779 319.936C351.63 316.956 351.481 312.783 351.481 308.163C351.481 303.543 351.481 299.371 351.63 296.39C351.779 293.409 351.779 291.472 351.63 291.472C351.481 291.472 351.183 293.26 350.885 296.39C350.587 299.371 350.438 303.692 350.438 308.312C350.438 312.932 350.736 317.105 351.034 320.234C351.332 323.066 351.63 325.003 351.779 324.854Z" fill="#FAFAFA"/>
<path d="M355.804 325.749C355.953 325.749 355.953 323.811 355.953 320.831C355.953 317.403 355.804 313.379 355.804 309.057C355.804 304.736 355.804 300.712 355.804 297.284C355.804 294.304 355.804 292.366 355.655 292.366C355.506 292.366 355.208 294.155 355.059 297.284C354.91 300.265 354.761 304.437 354.761 309.057C354.761 313.677 354.91 317.85 355.208 320.831C355.357 323.96 355.655 325.749 355.804 325.749Z" fill="#FAFAFA"/>
<path d="M277.563 524.105L262.809 564.79L241.797 593.552C240.306 595.639 240.902 598.619 242.989 599.961C244.181 600.706 245.671 600.855 247.013 600.259C255.507 596.682 286.505 583.717 287.399 580.736C288.442 577.159 308.412 533.494 308.412 533.494L277.563 524.105Z" fill="#EF37FF"/>
<g opacity="0.6">
<g opacity="0.6">
<path d="M243.138 599.961L288.592 578.054L287.996 579.694C287.4 581.184 286.356 582.376 285.015 583.121C281.289 585.059 270.857 590.424 247.46 600.26C245.97 600.856 244.33 600.707 243.138 599.961Z" fill="#93079F"/>
</g>
</g>
<g opacity="0.6">
<g opacity="0.6">
<g opacity="0.6">
<path opacity="0.6" d="M285.462 561.81C284.121 562.108 283.226 563.45 283.524 564.791C283.822 566.132 285.164 567.026 286.505 566.728C287.846 566.43 288.889 564.791 288.591 563.599C288.144 562.406 286.505 561.363 285.313 561.959" fill="white"/>
</g>
</g>
</g>
<path d="M259.233 585.952C258.935 585.952 258.935 583.567 256.848 581.481C254.911 579.395 252.526 579.097 252.526 578.799C252.526 578.65 253.122 578.5 254.166 578.799C255.209 579.097 256.401 579.693 257.593 580.885C258.636 582.077 259.233 583.418 259.382 584.462C259.531 585.356 259.382 585.952 259.233 585.952Z" fill="#263238"/>
<path d="M254.167 590.274C253.869 590.423 253.124 588.485 251.335 587.144C249.547 585.654 247.609 585.356 247.609 585.058C247.609 584.76 249.845 584.76 251.931 586.399C254.018 587.889 254.465 590.125 254.167 590.274Z" fill="#263238"/>
<path d="M267.281 581.035C266.983 581.184 265.791 578.352 263.108 575.968C260.426 573.434 257.594 572.54 257.743 572.242C257.743 571.944 261.022 572.54 263.853 575.223C266.685 577.905 267.43 581.035 267.281 581.035Z" fill="#263238"/>
<path d="M272.793 569.112C272.644 569.261 270.707 567.473 267.875 566.28C265.044 564.939 262.51 564.79 262.51 564.641C262.51 564.343 265.193 564.194 268.323 565.535C271.303 566.728 272.942 568.963 272.793 569.112Z" fill="#263238"/>
<path d="M277.414 557.339C277.265 557.488 275.477 555.253 272.347 554.209C269.218 553.017 266.535 553.762 266.535 553.464C266.535 553.315 267.131 553.017 268.323 552.868C269.516 552.719 271.155 552.719 272.794 553.315C274.433 553.911 275.775 554.805 276.52 555.7C277.265 556.594 277.414 557.19 277.414 557.339Z" fill="#263238"/>
<path d="M273.241 551.974C273.241 551.974 273.241 551.378 273.837 550.484C274.285 549.59 275.179 548.248 276.669 546.907C277.414 546.311 278.159 545.566 279.5 545.417C280.097 545.417 280.991 545.864 281.289 546.46C281.587 547.205 281.438 547.95 281.289 548.546C280.246 551.08 277.116 552.719 274.135 551.974C271.155 551.229 269.218 548.546 268.919 545.864C268.919 545.268 268.919 544.374 269.516 543.927C270.112 543.33 271.006 543.33 271.602 543.778C272.794 544.374 273.241 545.417 273.688 546.162C274.583 547.801 275.03 549.292 275.179 550.335C275.328 551.378 275.328 551.974 275.328 551.974C275.179 551.974 275.03 549.59 273.092 546.46C272.645 545.715 272.049 544.821 271.155 544.374C270.708 544.225 270.261 544.225 270.112 544.523C269.814 544.821 269.665 545.268 269.814 545.864C270.112 548.099 271.9 550.484 274.434 551.08C276.967 551.676 279.799 550.335 280.544 548.248C280.693 547.801 280.842 547.205 280.693 546.758C280.544 546.311 280.246 546.162 279.799 546.162C278.904 546.162 278.01 546.758 277.265 547.354C274.135 549.739 273.39 552.123 273.241 551.974Z" fill="#263238"/>
<path d="M215.269 513.524L216.611 546.608C216.611 546.608 183.526 558.977 183.079 565.088L247.162 564.939L247.311 513.375L215.269 513.524Z" fill="#EF37FF"/>
<g opacity="0.6">
<g opacity="0.6">
<path opacity="0.6" d="M236.431 543.777C237.623 544.075 238.518 545.565 238.22 546.757C237.922 547.949 236.58 548.844 235.239 548.546C234.047 548.247 232.855 546.608 233.302 545.416C233.749 544.224 235.388 543.18 236.58 543.926" fill="white"/>
</g>
</g>
<g opacity="0.6">
<path d="M247.162 564.939V559.872L185.464 561.958C185.464 561.958 182.633 563.15 182.931 565.237L247.162 564.939Z" fill="#93079F"/>
</g>
<path d="M215.567 546.31C215.567 546.608 217.206 546.757 218.696 547.8C220.336 548.694 221.081 550.185 221.379 550.036C221.677 550.036 221.23 548.098 219.292 546.906C217.355 545.565 215.418 546.012 215.567 546.31Z" fill="#263238"/>
<path d="M208.86 548.992C208.86 549.291 210.202 549.887 211.245 551.079C212.288 552.42 212.586 553.761 212.884 553.761C213.182 553.761 213.331 551.973 211.99 550.334C210.649 548.843 208.86 548.694 208.86 548.992Z" fill="#263238"/>
<path d="M204.986 557.04C205.284 557.04 205.731 555.55 204.837 553.761C204.092 551.973 202.602 551.377 202.453 551.675C202.303 551.973 203.198 552.867 203.943 554.208C204.539 555.699 204.688 557.04 204.986 557.04Z" fill="#263238"/>
<path d="M216.014 538.71C216.163 539.008 217.653 538.561 219.292 538.71C221.081 538.859 222.422 539.306 222.571 539.157C222.72 538.859 221.379 537.815 219.292 537.666C217.355 537.368 215.864 538.412 216.014 538.71Z" fill="#263238"/>
<g opacity="0.3">
<path opacity="0.3" d="M215.568 520.081L215.717 525.893L247.311 525.595V520.23L215.568 520.081Z" fill="black"/>
</g>
<path d="M215.865 532.004C215.865 532.153 217.057 532.302 219.144 532.004C220.187 531.855 221.23 531.557 222.571 530.96C223.167 530.662 223.764 530.364 224.36 529.917C224.658 529.768 224.956 529.47 225.254 529.172C225.552 528.874 225.85 527.98 225.403 527.533C225.105 527.086 224.509 526.788 224.062 526.788C223.615 526.788 223.167 526.937 222.869 526.937C222.124 527.086 221.528 527.384 220.932 527.682C219.74 528.278 218.697 529.023 217.951 529.619C216.461 530.961 216.014 532.153 216.014 532.302C216.163 532.451 216.908 531.408 218.399 530.215C219.144 529.619 220.187 529.023 221.23 528.576C221.826 528.278 222.422 528.129 223.018 527.98C223.764 527.831 224.211 527.831 224.509 528.129C224.509 528.278 224.509 528.278 224.509 528.427C224.36 528.576 224.062 528.725 223.764 529.023C223.167 529.321 222.571 529.768 222.124 530.066C221.081 530.662 219.889 530.961 218.995 531.259C217.206 531.706 215.865 531.855 215.865 532.004Z" fill="#263238"/>
<path d="M216.313 532.45C216.462 532.45 217.058 531.407 217.207 529.321C217.207 528.277 217.207 527.085 216.76 525.744C216.611 525.148 216.313 524.403 215.866 523.807C215.419 523.21 214.972 522.316 213.779 522.167C213.183 522.167 212.587 522.614 212.438 523.061C212.289 523.508 212.14 523.807 212.14 524.254C211.991 524.999 211.991 525.744 212.14 526.489C212.289 527.83 212.885 529.023 213.481 529.768C214.674 531.407 216.015 531.854 216.015 531.705C216.164 531.556 214.972 530.96 214.077 529.321C213.63 528.575 213.183 527.532 213.034 526.34C213.034 525.744 213.034 525.148 213.034 524.552C213.183 523.807 213.332 523.359 213.63 523.359C213.928 523.359 214.525 523.807 214.823 524.403C215.121 524.999 215.419 525.595 215.568 526.191C216.015 527.383 216.164 528.426 216.164 529.321C216.462 531.258 216.164 532.45 216.313 532.45Z" fill="#263238"/>
<path d="M247.311 355.108C285.164 358.982 335.387 364.198 335.387 364.198L328.531 425.896C328.531 425.896 254.762 406.373 255.21 408.013C255.806 409.652 251.782 539.307 251.782 539.307H207.372L206.477 392.514C206.328 370.309 225.255 352.872 247.311 355.108Z" fill="#030229"/>
<path d="M426.145 379.995V399.07C426.145 412.036 411.242 425.896 398.276 425.896H388.142C380.244 425.896 367.725 420.083 361.317 415.464L357.443 412.632L311.095 555.997C311.095 555.997 258.19 546.459 258.19 544.82C258.19 543.181 294.106 427.386 310.648 373.587C317.354 351.68 340.9 338.863 362.659 346.315C363.404 346.613 364.149 346.911 364.894 347.209C388.589 356.896 426.145 379.995 426.145 379.995Z" fill="#030229"/>
<path d="M258.339 544.969C258.339 544.969 258.488 544.82 258.637 544.522C258.786 544.075 258.935 543.628 259.233 543.032C259.68 541.691 260.425 539.753 261.319 537.071C263.107 531.855 265.492 524.403 268.472 515.015C274.434 496.386 282.332 470.455 290.976 441.842C295.298 427.535 299.321 413.824 303.047 401.455C304.835 395.196 306.624 389.384 308.263 383.87C309.157 381.038 309.902 378.505 310.647 375.822C311.393 373.289 312.138 370.755 313.032 368.52C314.82 364.049 317.652 360.621 320.483 357.939C323.315 355.256 325.997 353.319 328.382 351.829C330.617 350.338 332.406 349.146 333.747 348.401C334.343 348.103 334.79 347.805 335.088 347.507C335.386 347.358 335.535 347.209 335.535 347.209C335.535 347.209 335.386 347.209 335.088 347.507C334.641 347.656 334.194 347.954 333.598 348.252C332.257 348.997 330.468 350.04 328.233 351.531C325.848 353.021 323.166 354.958 320.185 357.492C317.354 360.174 314.373 363.602 312.436 368.222C311.393 370.457 310.647 372.991 309.902 375.524C309.157 378.058 308.263 380.74 307.518 383.423C305.879 388.937 304.09 394.898 302.153 401.008C298.427 413.377 294.254 427.088 289.933 441.395C281.289 470.008 273.539 495.79 267.876 514.716C265.045 523.956 262.66 531.557 261.021 536.922C260.276 539.455 259.531 541.542 259.084 542.883C258.935 543.479 258.786 544.075 258.637 544.522C258.339 544.671 258.339 544.969 258.339 544.969Z" fill="#455A64"/>
<path d="M247.162 389.533C246.864 389.682 249.398 393.556 251.484 398.623C253.57 403.69 254.465 408.161 254.912 408.161C255.21 408.161 254.763 403.541 252.527 398.176C250.292 392.811 247.311 389.235 247.162 389.533Z" fill="#455A64"/>
<path d="M238.666 395.493C238.517 395.791 242.392 397.43 246.267 400.56C250.291 403.69 252.824 406.968 253.122 406.819C253.42 406.67 251.185 402.944 247.012 399.666C242.839 396.387 238.666 395.195 238.666 395.493Z" fill="#455A64"/>
<path d="M310.797 556.146C311.095 556.295 323.614 517.846 338.666 470.455C353.866 423.064 365.789 384.465 365.491 384.465C365.193 384.316 352.674 422.766 337.622 470.157C322.571 517.548 310.499 555.997 310.797 556.146Z" fill="#455A64"/>
<path d="M367.576 332.455L216.014 333.946L187.848 254.067L297.98 254.812L323.613 326.643L367.576 327.239V332.455Z" fill="#26C0E2"/>
<path d="M251.782 300.862C248.408 300.862 245.672 298.127 245.672 294.752C245.672 291.378 248.408 288.642 251.782 288.642C255.157 288.642 257.893 291.378 257.893 294.752C257.893 298.127 255.157 300.862 251.782 300.862Z" fill="white"/>
<path d="M379.944 116.364C378.454 110.999 374.579 108.466 369.363 106.677C364.147 104.889 358.037 105.932 353.715 109.211C350.734 111.446 348.499 114.725 345.071 115.917C339.408 117.855 332.702 113.682 327.188 116.215C323.909 117.706 322.121 121.729 322.866 125.157C323.76 128.585 327.188 131.267 330.765 131.118C327.039 132.459 325.847 137.824 328.082 141.103C330.318 144.382 334.788 145.723 338.663 144.978C342.538 144.233 345.966 141.848 348.946 139.166C351.927 136.483 354.609 133.503 357.739 131.118C360.868 128.734 364.743 126.945 368.767 127.094C374.132 127.392 378.752 131.416 381.136 136.185C383.521 140.954 384.117 146.468 384.415 151.833C384.713 157.198 384.862 162.712 386.352 167.779C386.501 168.375 386.799 169.12 387.395 169.269C388.29 169.567 389.035 168.673 389.482 167.779C394.4 158.688 397.529 148.703 398.573 138.42C399.169 132.459 399.02 126.796 395.741 121.878C392.313 116.811 383.968 113.086 379.944 116.364Z" fill="#030229"/>
<path d="M390.377 141.252L393.059 201.609C393.506 211.892 392.165 227.093 375.921 227.093C361.763 226.049 357.59 212.786 357.292 203.248C357.143 198.777 356.845 194.903 356.845 194.455C356.845 194.455 341.495 193.71 339.558 178.509C338.664 171.207 338.068 156.006 337.77 142.147C337.323 127.393 348.5 114.725 363.105 113.235L364.595 113.086C380.541 112.341 389.93 125.306 390.377 141.252Z" fill="#FFAA8C"/>
<path d="M356.695 194.158C356.695 194.158 366.382 193.86 375.92 186.408C375.92 186.408 372.343 197.884 357.142 198.033L356.695 194.158Z" fill="#EB996E"/>
<path d="M343.283 151.833C343.432 153.025 344.475 153.919 345.667 153.77C346.86 153.77 347.754 152.727 347.754 151.535C347.605 150.343 346.562 149.449 345.369 149.598C344.028 149.747 343.134 150.641 343.283 151.833Z" fill="#263238"/>
<path d="M341.793 149.299C342.091 149.597 343.581 148.107 345.966 147.958C348.35 147.66 350.139 148.703 350.288 148.405C350.437 148.256 350.139 147.809 349.244 147.362C348.499 146.915 347.158 146.467 345.668 146.617C344.177 146.766 342.985 147.511 342.389 148.107C341.793 148.554 341.644 149.15 341.793 149.299Z" fill="#263238"/>
<path d="M366.234 150.193C366.383 151.385 367.426 152.279 368.619 152.13C369.811 152.13 370.705 151.087 370.705 149.895C370.556 148.703 369.513 147.809 368.321 147.958C366.979 148.107 366.085 149.001 366.234 150.193Z" fill="#263238"/>
<path d="M364.744 147.213C365.042 147.511 366.533 146.021 368.917 145.872C371.301 145.574 373.09 146.617 373.239 146.319C373.388 146.17 373.09 145.723 372.196 145.276C371.45 144.829 370.109 144.382 368.619 144.531C367.129 144.68 365.936 145.425 365.34 146.021C364.744 146.617 364.595 147.064 364.744 147.213Z" fill="#263238"/>
<path d="M358.186 165.394C358.186 165.245 356.695 165.096 354.311 165.096C353.715 165.096 353.119 165.096 352.97 164.649C352.821 164.202 352.97 163.606 353.119 162.861C353.566 161.37 354.013 159.731 354.46 158.092C356.248 151.385 357.44 145.871 357.142 145.871C356.844 145.871 355.205 151.236 353.417 157.943C352.97 159.582 352.522 161.221 352.224 162.712C352.075 163.457 351.777 164.202 352.224 165.096C352.373 165.543 352.97 165.841 353.268 165.841C353.715 165.99 354.013 165.841 354.311 165.841C356.695 165.692 358.186 165.543 358.186 165.394Z" fill="#263238"/>
<path d="M365.191 166.288C364.744 166.288 365.042 168.822 363.105 170.908C361.167 172.995 358.336 172.995 358.485 173.293C358.485 173.442 359.081 173.74 360.273 173.591C361.465 173.442 362.956 172.995 364.148 171.802C365.34 170.61 365.787 168.971 365.787 167.928C365.638 166.885 365.34 166.288 365.191 166.288Z" fill="#263238"/>
<path d="M363.105 138.123C363.403 138.719 365.639 138.123 368.47 138.272C371.302 138.272 373.537 138.868 373.835 138.272C373.984 137.974 373.537 137.378 372.494 136.931C371.6 136.483 370.11 136.036 368.47 136.036C366.831 136.036 365.341 136.483 364.447 136.931C363.552 137.378 363.105 137.825 363.105 138.123Z" fill="#263238"/>
<path d="M341.944 142.444C342.391 142.891 344.03 142.146 345.818 141.997C347.756 141.699 349.395 141.997 349.693 141.401C349.842 141.103 349.544 140.656 348.799 140.209C348.054 139.762 346.862 139.464 345.52 139.613C344.179 139.762 343.136 140.358 342.54 140.954C341.944 141.55 341.795 142.146 341.944 142.444Z" fill="#263238"/>
<path d="M390.228 152.579C390.526 152.43 400.362 148.406 401.107 158.838C401.852 169.27 391.271 167.929 391.271 167.63C391.271 167.183 390.228 152.579 390.228 152.579Z" fill="#FFBE9D"/>
<path d="M394.101 163.309C394.101 163.309 394.251 163.458 394.549 163.607C394.847 163.756 395.443 163.756 395.89 163.607C396.933 163.16 397.827 161.372 397.678 159.434C397.678 158.54 397.38 157.646 396.933 156.901C396.486 156.156 396.039 155.709 395.443 155.56C394.847 155.41 394.549 155.858 394.4 156.156C394.251 156.454 394.4 156.603 394.251 156.752C394.251 156.752 393.952 156.603 394.101 156.156C394.101 156.007 394.251 155.709 394.4 155.41C394.698 155.261 394.996 155.112 395.443 155.112C396.188 155.112 397.082 155.858 397.529 156.603C397.976 157.348 398.274 158.391 398.423 159.434C398.572 161.521 397.529 163.607 396.188 164.054C395.443 164.352 394.847 164.054 394.549 163.905C394.251 163.607 394.101 163.458 394.101 163.309Z" fill="#EB996E"/>
<path d="M334.194 139.315C341.049 140.358 348.352 137.825 353.121 132.907C356.548 129.33 358.784 124.561 363.255 122.624C366.235 121.283 369.812 121.581 372.792 122.922C375.773 124.263 378.306 126.35 380.691 128.734C378.604 136.782 381.436 145.127 384.268 152.877C384.566 153.771 385.013 154.665 385.758 155.112C387.099 155.857 388.887 154.963 389.782 153.771C391.272 151.834 391.719 149.151 391.868 146.767C392.315 141.104 391.868 135.291 389.931 129.926C388.142 124.561 384.864 119.643 380.393 116.067C374.73 111.745 367.427 109.957 360.274 110.851C353.121 111.745 346.563 115.024 341.496 119.942C339.112 122.177 336.877 124.859 335.982 127.989" fill="#030229"/>
<path d="M540.599 477.114C535.234 474.431 528.975 473.984 523.162 475.027C520.033 475.623 516.754 476.517 514.519 478.902C512.432 481.286 511.985 485.459 514.37 487.546C515.86 488.738 517.946 488.887 519.884 488.887C524.504 488.887 529.571 487.993 533.296 490.824C535.383 492.463 536.873 494.997 539.258 495.891C541.791 496.636 544.473 495.146 545.815 492.911C547.156 490.675 547.156 487.844 546.56 485.459C546.709 485.31 545.964 479.796 540.599 477.114Z" fill="#3A974C"/>
<path d="M552.818 453.567C549.54 458.187 543.281 456.696 540.3 453.865C537.32 451.033 536.127 446.86 534.935 442.986C532.402 434.044 529.719 424.655 531.656 415.565C532.253 412.882 533.296 410.2 535.233 408.113C537.17 406.027 540.151 404.835 542.834 405.58C545.963 406.474 548.05 409.603 549.391 412.435C553.564 421.228 555.799 430.765 555.799 440.452C555.948 445.072 555.352 449.841 552.818 453.567Z" fill="#3A974C"/>
<path d="M561.76 460.273C558.183 456.1 557.587 449.99 559.077 444.774C560.717 439.558 564.144 435.087 568.317 431.362C573.086 427.04 578.749 423.761 584.859 421.675C587.244 420.781 589.777 420.185 592.311 420.483C594.844 420.781 597.378 421.973 598.57 424.208C600.358 427.487 598.57 431.511 596.781 434.789C593.652 440.601 589.926 446.115 585.902 451.331C582.624 455.504 578.898 459.677 573.98 461.465C569.062 463.403 563.846 463.105 561.313 459.677" fill="#3A974C"/>
<path d="M553.117 523.61C553.117 523.61 552.968 522.865 552.819 521.523C552.67 520.033 552.521 518.096 552.223 515.711C551.925 513.327 551.627 510.346 550.882 507.217C550.286 504.087 549.093 500.659 547.752 497.232C546.411 493.804 544.623 490.675 542.685 488.29C540.748 485.757 538.363 483.968 536.277 482.925C534.191 481.882 532.253 481.435 530.912 481.286C529.571 481.137 528.826 480.988 528.826 480.988C528.826 480.988 529.571 480.988 530.912 480.988C532.253 481.137 534.34 481.435 536.575 482.478C538.81 483.521 541.344 485.309 543.43 487.843C545.517 490.376 547.305 493.506 548.646 497.083C549.988 500.51 551.031 503.938 551.627 507.217C552.223 510.346 552.521 513.327 552.819 515.711C552.968 518.096 553.117 520.182 553.117 521.523C553.117 522.865 553.117 523.61 553.117 523.61Z" fill="#263238"/>
<path d="M552.67 519.139C552.67 519.139 552.67 518.841 552.67 518.096C552.67 517.351 552.67 516.457 552.67 515.264C552.67 512.88 552.67 509.303 552.521 504.981C552.372 496.338 551.627 486.949 550.137 473.834C548.795 461.465 547.007 447.009 545.07 437.621C544.623 435.534 544.175 433.597 543.877 431.958C543.43 430.318 543.132 428.828 542.834 427.636C542.536 426.593 542.387 425.698 542.238 424.953C542.089 424.357 542.089 424.059 542.089 424.059C542.089 424.059 542.238 424.357 542.387 424.953C542.536 425.698 542.834 426.593 543.132 427.636C543.43 428.828 543.877 430.169 544.325 431.958C544.772 433.597 545.219 435.534 545.666 437.621C547.603 446.115 549.541 458.038 551.031 471.152C552.521 484.416 553.117 496.338 553.117 505.13C553.117 509.452 553.117 513.029 552.968 515.413C552.968 516.606 552.819 517.5 552.819 518.245C552.67 518.841 552.67 519.139 552.67 519.139Z" fill="#263238"/>
<path d="M552.67 495.89C552.67 495.89 552.67 494.847 552.67 492.91C552.819 490.973 552.968 488.29 553.564 485.011C554.16 481.733 554.905 477.709 556.097 473.536C556.693 471.599 557.886 466.83 560.866 459.826C564.89 450.288 570.255 442.538 575.024 437.769C576.067 436.428 577.408 435.534 578.302 434.64C578.749 434.193 579.197 433.746 579.793 433.448C580.24 433.15 580.687 432.852 581.134 432.553C582.624 431.51 583.518 430.914 583.667 430.914C583.816 431.063 580.24 433.299 575.62 438.068C571 442.985 565.784 450.586 561.76 459.975C559.525 465.042 558.035 469.661 556.842 473.536C555.65 477.709 554.756 481.733 554.16 485.011C553.564 488.29 553.266 490.973 552.968 492.91C552.819 494.996 552.67 495.89 552.67 495.89Z" fill="#263238"/>
<path d="M575.023 536.873L572.639 568.616H531.805L529.421 536.873H575.023Z" fill="#FFD66B"/>
<path d="M524.501 524.355H578.896V536.873H524.501V524.355Z" fill="#FFD66B"/>
<path d="M573.07 574.605L575.465 568.644H529.266L531.942 574.605H573.07Z" fill="#FFD66B"/>
<path d="M530.315 547.157C530.315 547.157 530.315 547.306 530.464 547.455C530.613 547.604 530.762 547.902 531.061 548.2C531.657 548.945 532.402 549.988 533.445 551.18L533.594 551.33C535.084 549.243 537.022 546.561 539.406 543.282H539.108C540.896 545.815 542.834 548.498 544.92 551.479L545.069 551.777L545.218 551.479C547.305 548.945 549.689 546.263 552.074 543.282H551.626C551.775 543.431 551.924 543.58 552.074 543.729C554.16 546.412 556.246 548.945 558.184 551.33L558.333 551.628L558.482 551.33C560.568 548.349 562.505 545.666 564.294 543.133H563.996C566.827 546.412 569.212 549.094 571.149 551.18L571.298 551.33L571.447 551.18C572.341 549.541 573.086 548.349 573.683 547.455C573.981 547.008 574.13 546.71 574.279 546.412C574.428 546.114 574.428 546.114 574.428 546.114C574.428 546.114 574.279 546.263 574.13 546.412C573.981 546.71 573.683 547.008 573.534 547.306C572.937 548.2 572.192 549.392 571.149 551.031H571.298C569.51 548.945 567.125 546.114 564.294 542.835L564.145 542.686L563.996 542.835C562.207 545.368 560.27 548.051 558.184 550.882H558.631C556.693 548.498 554.607 545.815 552.521 543.282C552.372 543.133 552.223 542.984 552.074 542.835L551.924 542.537L551.775 542.835C549.391 545.666 547.156 548.498 544.92 551.031H545.367C543.281 548.051 541.343 545.368 539.555 542.984L539.406 542.686L539.257 542.984C537.022 546.263 534.935 549.094 533.594 551.18H533.743C532.7 549.988 531.806 548.945 531.21 548.2C530.912 547.902 530.762 547.604 530.613 547.455C530.315 547.306 530.315 547.157 530.315 547.157Z" fill="#030229"/>
<path d="M551.775 536.873C539.182 536.873 528.974 536.74 528.974 536.575C528.974 536.411 539.182 536.277 551.775 536.277C564.368 536.277 574.576 536.411 574.576 536.575C574.576 536.74 564.368 536.873 551.775 536.873Z" fill="#455A64"/>
<path d="M128.835 187.898L157.15 306.524H149.252L121.235 187.898H128.835Z" fill="#263238"/>
<path d="M139.714 265.988C140.161 268.223 126.749 332.902 126.749 332.902H133.157L143.291 281.636L139.714 265.988Z" fill="#263238"/>
<path d="M45.2289 418.445H178.162V559.425H45.2289V418.445Z" fill="#26C0E2"/>
<path d="M38.5228 439.01H45.0801V445.567H38.5228V439.01Z" fill="#263238"/>
<path d="M38.5228 459.725H45.0801V466.282H38.5228V459.725Z" fill="#263238"/>
<path d="M38.5228 480.589H45.0801V487.146H38.5228V480.589Z" fill="#263238"/>
<path d="M38.5228 501.303H45.0801V507.861H38.5228V501.303Z" fill="#263238"/>
<path d="M38.3732 482.377C38.3732 482.377 37.6281 482.228 36.4359 481.93C35.0946 481.781 33.3063 481.334 30.7728 481.334C28.3883 481.334 25.4078 481.781 22.7253 483.42C21.384 484.314 20.0427 485.507 19.2976 487.146C18.4034 488.785 18.1054 490.573 18.2544 492.511C18.4035 494.299 18.9995 496.088 19.8937 497.578C20.7879 499.068 21.9801 500.26 23.3214 501.154C25.8549 503.092 28.6864 503.837 31.0708 504.284C33.4553 504.582 35.3927 504.582 36.7339 504.433C38.0752 504.284 38.8203 504.135 38.8203 504.135C38.8203 504.135 38.0752 504.135 36.7339 504.135C35.3927 504.135 33.4553 504.135 31.2199 503.688C28.9844 503.241 26.3019 502.347 23.7685 500.558C21.384 498.77 19.1486 495.789 18.9996 492.362C18.8506 490.573 19.1486 488.934 19.8937 487.444C20.6389 485.954 21.8311 484.91 23.0233 484.016C25.5568 482.377 28.3883 481.93 30.7728 481.781C33.1572 481.781 34.9456 481.93 36.2868 482.079C37.6281 482.377 38.3732 482.526 38.3732 482.377Z" fill="#263238"/>
<path d="M40.0137 461.812C40.0137 461.812 39.8647 461.663 39.4176 461.364C38.9705 461.215 38.3744 460.917 37.4802 460.619C35.6919 460.023 33.0094 459.576 29.8798 460.172C29.1346 460.321 28.2405 460.619 27.4953 461.066C26.7502 461.514 26.0051 462.408 25.707 463.451C25.1109 465.388 25.856 467.624 27.1973 469.412C27.9424 470.306 28.8366 471.051 29.8798 471.498C30.923 471.945 32.4132 471.945 33.4564 471.349C34.4996 470.753 35.5428 469.561 35.5428 468.22C35.5428 466.878 34.6487 465.537 33.4564 464.941C32.2642 464.345 30.923 464.345 29.5817 464.494C28.3895 464.792 27.1973 465.388 26.3031 466.133C24.3657 467.624 23.1735 469.859 23.0245 472.094C22.7264 474.33 23.6206 476.416 24.6638 478.056C25.856 479.695 27.3463 480.738 28.6876 481.483C31.6681 482.974 34.3506 483.272 36.139 483.421C37.0331 483.421 37.7783 483.57 38.2254 483.57C38.6724 483.57 38.9705 483.57 38.9705 483.57C38.9705 483.57 37.9273 483.421 36.139 483.272C34.3506 482.974 31.8171 482.676 28.9856 481.185C27.6443 480.44 26.154 479.397 25.1109 477.907C24.0677 476.416 23.3225 474.479 23.6206 472.393C23.9186 470.306 24.9618 468.369 26.7502 467.028C27.6443 466.282 28.6875 465.835 29.7307 465.537C30.7739 465.239 31.9662 465.388 33.0094 465.835C34.0526 466.282 34.6487 467.326 34.6487 468.369C34.6487 469.412 33.9035 470.306 33.0094 470.902C32.1152 471.498 30.923 471.498 30.0288 471.051C28.9856 470.753 28.2405 470.008 27.6443 469.263C26.3031 467.773 25.707 465.686 26.1541 463.898C26.6012 462.11 28.2405 461.215 29.8798 460.917C33.0094 460.172 35.5428 460.619 37.3312 461.066C39.1195 461.364 40.0137 461.961 40.0137 461.812Z" fill="#263238"/>
<path d="M39.8652 441.544C39.8652 441.544 39.4181 441.395 38.375 441.246C37.4808 441.246 35.9905 441.246 34.3512 441.842C32.7119 442.438 30.9235 443.481 29.4333 445.12C27.943 446.909 26.8998 449.293 26.8998 451.976C26.7507 454.658 27.6449 457.192 28.9861 458.98C30.3274 460.768 32.1158 461.961 33.7551 462.557C35.3944 463.153 36.7356 463.302 37.6298 463.302C38.524 463.302 39.1201 463.153 39.1201 463.153C39.1201 463.004 36.8847 463.451 33.9041 461.961C32.4138 461.215 30.7745 460.172 29.5823 458.384C28.241 456.596 27.4959 454.36 27.6449 451.827C27.7939 449.293 28.6881 447.058 30.0294 445.418C31.3706 443.779 33.159 442.736 34.6492 442.14C37.7788 441.246 39.8652 441.693 39.8652 441.544Z" fill="#263238"/>
<path d="M138.67 343.632C138.67 343.632 138.074 344.526 137.478 346.315C136.882 348.103 136.285 350.785 135.689 354.362C135.093 357.939 134.646 362.261 134.199 367.179C133.752 372.245 133.305 377.909 132.56 384.317C132.411 385.956 132.113 387.446 131.815 389.086C131.517 390.725 131.069 392.364 130.324 393.855C129.579 395.345 128.387 396.686 127.046 397.878C125.704 399.071 124.363 400.263 122.724 401.157C119.594 403.094 115.869 404.436 111.994 404.883C108.119 405.33 103.946 404.734 100.221 402.796C96.495 401.008 93.5144 397.431 92.6202 393.258C92.1731 391.172 92.3221 388.937 93.0673 386.85C93.8124 384.764 95.3027 383.125 97.2401 381.932C99.0284 380.74 101.264 379.995 103.499 379.846C105.735 379.697 108.119 380.293 109.907 381.783C110.802 382.528 111.547 383.274 111.994 384.317C112.441 385.36 112.59 386.403 112.441 387.595C111.994 389.831 110.355 391.768 108.268 392.811C106.182 394.004 103.797 394.451 101.413 394.749C99.0284 395.047 96.644 395.196 94.4085 395.196C89.6396 395.345 85.0198 394.898 80.5489 394.451C71.4582 393.407 62.6655 391.917 54.3199 391.917C45.9744 391.768 37.7778 392.96 30.9225 396.388C27.4949 398.027 24.5143 400.263 22.2789 402.945C19.8944 405.628 18.4042 408.757 17.808 411.887C16.4668 418.295 17.9571 424.256 20.3415 428.727C22.875 433.198 26.3027 436.179 29.1342 438.116C32.1148 440.053 34.6482 441.246 36.4366 441.842C38.2249 442.438 39.1191 442.736 39.1191 442.736C39.1191 442.736 38.821 442.587 38.374 442.438C37.9269 442.289 37.1817 441.991 36.4366 441.693C34.6482 440.947 32.1148 439.904 29.2832 437.818C26.4517 435.731 23.024 432.751 20.6396 428.429C18.2551 424.107 16.9139 418.146 18.2551 412.036C19.0003 409.055 20.3415 405.926 22.726 403.392C24.9614 400.859 27.942 398.623 31.2206 397.133C37.9268 393.855 45.9744 392.662 54.3199 392.811C62.6655 392.96 71.4582 394.451 80.5489 395.345C85.1688 395.792 89.7887 396.239 94.5576 396.09C96.942 396.09 99.3265 395.941 101.711 395.643C104.095 395.345 106.629 394.898 108.715 393.706C110.951 392.513 112.739 390.427 113.186 387.893C113.484 386.701 113.186 385.36 112.739 384.168C112.143 382.975 111.398 382.081 110.355 381.336C108.417 379.846 105.884 379.25 103.499 379.25C101.115 379.399 98.7304 380.144 96.793 381.485C94.8556 382.826 93.2163 384.615 92.3221 386.85C91.428 389.086 91.428 391.47 91.8751 393.557C92.9183 398.027 96.0479 401.604 99.9226 403.541C103.797 405.479 108.119 406.075 111.994 405.628C116.018 405.181 119.743 403.839 123.022 401.902C124.661 400.859 126.152 399.816 127.344 398.474C128.685 397.133 129.877 395.941 130.771 394.302C131.517 392.662 131.964 391.023 132.262 389.384C132.56 387.744 132.858 386.105 133.007 384.615C133.752 378.356 134.199 372.544 134.646 367.477C135.093 362.41 135.54 358.088 135.987 354.66C136.435 351.083 137.031 348.401 137.627 346.613C137.925 345.718 138.074 344.973 138.372 344.675C138.521 343.781 138.67 343.632 138.67 343.632Z" fill="#263238"/>
<path d="M52.6803 553.464C52.6803 553.464 52.6803 553.315 52.6803 552.868C52.6803 552.421 52.6803 551.825 52.6803 551.079C52.6803 549.44 52.6803 547.205 52.6803 544.075C52.6803 537.965 52.6803 529.023 52.8293 517.697C52.8293 495.045 52.9784 462.706 52.9784 423.958L52.6803 424.256C87.8509 424.256 128.983 424.256 172.946 424.256L172.499 423.809C172.499 471.498 172.499 515.909 172.499 553.315L172.797 553.017C136.732 553.017 106.778 553.166 85.7646 553.166C75.1836 553.166 66.987 553.166 61.324 553.315C58.4924 553.315 56.406 553.315 54.9157 553.315C53.4254 553.464 52.6803 553.464 52.6803 553.464C52.6803 553.464 53.4254 553.464 54.9157 553.464C56.406 553.464 58.4924 553.464 61.324 553.464C66.987 553.464 75.1836 553.464 85.6155 553.613C106.629 553.613 136.732 553.762 172.946 553.762H173.244V553.464C173.244 516.058 173.244 471.498 173.244 423.958V423.511H172.797C128.983 423.511 87.851 423.511 52.5313 423.511H52.2332V423.809C52.2332 462.557 52.3823 495.045 52.3823 517.697C52.3823 529.023 52.3823 537.965 52.5313 544.075C52.5313 547.056 52.5313 549.44 52.5313 550.93C52.5313 551.675 52.5313 552.272 52.5313 552.719C52.6803 553.315 52.6803 553.464 52.6803 553.464Z" fill="#263238"/>
<path d="M87.107 440.501C86.7778 440.501 86.5109 440.234 86.5109 439.905C86.5109 439.576 86.7778 439.309 87.107 439.309C87.4362 439.309 87.7031 439.576 87.7031 439.905C87.7031 440.234 87.4362 440.501 87.107 440.501Z" fill="#263238"/>
<path d="M83.8277 440.501C83.4985 440.501 83.2316 440.234 83.2316 439.904C83.2316 439.575 83.4985 439.308 83.8277 439.308C84.1569 439.308 84.4238 439.575 84.4238 439.904C84.4238 440.234 84.1569 440.501 83.8277 440.501Z" fill="#263238"/>
<path d="M80.4 440.501C80.0708 440.501 79.8039 440.234 79.8039 439.904C79.8039 439.575 80.0708 439.308 80.4 439.308C80.7292 439.308 80.9961 439.575 80.9961 439.904C80.9961 440.234 80.7292 440.501 80.4 440.501Z" fill="#263238"/>
<path d="M76.8785 440.591C76.5493 440.591 76.2824 440.324 76.2824 439.995C76.2824 439.665 76.5493 439.398 76.8785 439.398C77.2077 439.398 77.4746 439.665 77.4746 439.995C77.4746 440.324 77.2077 440.591 76.8785 440.591Z" fill="#263238"/>
<path d="M73.4527 440.591C73.1235 440.591 72.8566 440.324 72.8566 439.995C72.8566 439.665 73.1235 439.398 73.4527 439.398C73.7819 439.398 74.0488 439.665 74.0488 439.995C74.0488 440.324 73.7819 440.591 73.4527 440.591Z" fill="#263238"/>
<path d="M70.1168 440.501C69.7876 440.501 69.5207 440.234 69.5207 439.904C69.5207 439.575 69.7876 439.308 70.1168 439.308C70.446 439.308 70.7129 439.575 70.7129 439.904C70.7129 440.234 70.446 440.501 70.1168 440.501Z" fill="#263238"/>
<path d="M66.8394 440.501C66.5102 440.501 66.2433 440.234 66.2433 439.904C66.2433 439.575 66.5102 439.308 66.8394 439.308C67.1686 439.308 67.4355 439.575 67.4355 439.904C67.4355 440.234 67.1686 440.501 66.8394 440.501Z" fill="#263238"/>
<path d="M68.3296 442.885C68.0004 442.885 67.7335 442.619 67.7335 442.289C67.7335 441.96 68.0004 441.693 68.3296 441.693C68.6589 441.693 68.9258 441.96 68.9258 442.289C68.9258 442.619 68.6589 442.885 68.3296 442.885Z" fill="#263238"/>
<path d="M71.6637 442.976C71.3344 442.976 71.0676 442.709 71.0676 442.379C71.0676 442.05 71.3344 441.783 71.6637 441.783C71.9929 441.783 72.2598 442.05 72.2598 442.379C72.2598 442.709 71.9929 442.976 71.6637 442.976Z" fill="#263238"/>
<path d="M75.2398 442.976C74.9106 442.976 74.6437 442.709 74.6437 442.379C74.6437 442.05 74.9106 441.783 75.2398 441.783C75.5691 441.783 75.8359 442.05 75.8359 442.379C75.8359 442.709 75.5691 442.976 75.2398 442.976Z" fill="#263238"/>
<path d="M78.6675 442.976C78.3383 442.976 78.0714 442.709 78.0714 442.379C78.0714 442.05 78.3383 441.783 78.6675 441.783C78.9967 441.783 79.2637 442.05 79.2637 442.379C79.2637 442.709 78.9967 442.976 78.6675 442.976Z" fill="#263238"/>
<path d="M82.1891 442.885C81.8598 442.885 81.5929 442.619 81.5929 442.289C81.5929 441.96 81.8598 441.693 82.1891 441.693C82.5183 441.693 82.7852 441.96 82.7852 442.289C82.7852 442.619 82.5183 442.885 82.1891 442.885Z" fill="#263238"/>
<path d="M85.7652 442.885C85.436 442.885 85.1691 442.619 85.1691 442.289C85.1691 441.96 85.436 441.693 85.7652 441.693C86.0944 441.693 86.3613 441.96 86.3613 442.289C86.3613 442.619 86.0944 442.885 85.7652 442.885Z" fill="#263238"/>
<path d="M87.107 445.418C86.7778 445.418 86.5109 445.151 86.5109 444.822C86.5109 444.493 86.7778 444.226 87.107 444.226C87.4362 444.226 87.7031 444.493 87.7031 444.822C87.7031 445.151 87.4362 445.418 87.107 445.418Z" fill="#263238"/>
<path d="M83.8277 445.418C83.4985 445.418 83.2316 445.151 83.2316 444.822C83.2316 444.493 83.4985 444.226 83.8277 444.226C84.1569 444.226 84.4238 444.493 84.4238 444.822C84.4238 445.151 84.1569 445.418 83.8277 445.418Z" fill="#263238"/>
<path d="M80.4 445.418C80.0708 445.418 79.8039 445.151 79.8039 444.822C79.8039 444.493 80.0708 444.226 80.4 444.226C80.7292 444.226 80.9961 444.493 80.9961 444.822C80.9961 445.151 80.7292 445.418 80.4 445.418Z" fill="#263238"/>
<path d="M76.8785 445.508C76.5493 445.508 76.2824 445.241 76.2824 444.912C76.2824 444.583 76.5493 444.316 76.8785 444.316C77.2077 444.316 77.4746 444.583 77.4746 444.912C77.4746 445.241 77.2077 445.508 76.8785 445.508Z" fill="#263238"/>
<path d="M73.4527 445.508C73.1235 445.508 72.8566 445.241 72.8566 444.912C72.8566 444.583 73.1235 444.316 73.4527 444.316C73.7819 444.316 74.0488 444.583 74.0488 444.912C74.0488 445.241 73.7819 445.508 73.4527 445.508Z" fill="#263238"/>
<path d="M70.1168 445.418C69.7876 445.418 69.5207 445.151 69.5207 444.822C69.5207 444.493 69.7876 444.226 70.1168 444.226C70.446 444.226 70.7129 444.493 70.7129 444.822C70.7129 445.151 70.446 445.418 70.1168 445.418Z" fill="#263238"/>
<path d="M66.8394 445.418C66.5102 445.418 66.2433 445.151 66.2433 444.822C66.2433 444.493 66.5102 444.226 66.8394 444.226C67.1686 444.226 67.4355 444.493 67.4355 444.822C67.4355 445.151 67.1686 445.418 66.8394 445.418Z" fill="#263238"/>
<path d="M68.3296 447.653C68.0004 447.653 67.7335 447.387 67.7335 447.057C67.7335 446.728 68.0004 446.461 68.3296 446.461C68.6589 446.461 68.9258 446.728 68.9258 447.057C68.9258 447.387 68.6589 447.653 68.3296 447.653Z" fill="#263238"/>
<path d="M71.6637 447.743C71.3344 447.743 71.0676 447.476 71.0676 447.147C71.0676 446.818 71.3344 446.551 71.6637 446.551C71.9929 446.551 72.2598 446.818 72.2598 447.147C72.2598 447.476 71.9929 447.743 71.6637 447.743Z" fill="#263238"/>
<path d="M75.2398 447.743C74.9106 447.743 74.6437 447.476 74.6437 447.147C74.6437 446.818 74.9106 446.551 75.2398 446.551C75.5691 446.551 75.8359 446.818 75.8359 447.147C75.8359 447.476 75.5691 447.743 75.2398 447.743Z" fill="#263238"/>
<path d="M78.6675 447.743C78.3383 447.743 78.0714 447.476 78.0714 447.147C78.0714 446.818 78.3383 446.551 78.6675 446.551C78.9967 446.551 79.2637 446.818 79.2637 447.147C79.2637 447.476 78.9967 447.743 78.6675 447.743Z" fill="#263238"/>
<path d="M82.1891 447.653C81.8598 447.653 81.5929 447.387 81.5929 447.057C81.5929 446.728 81.8598 446.461 82.1891 446.461C82.5183 446.461 82.7852 446.728 82.7852 447.057C82.7852 447.387 82.5183 447.653 82.1891 447.653Z" fill="#263238"/>
<path d="M85.7652 447.653C85.436 447.653 85.1691 447.387 85.1691 447.057C85.1691 446.728 85.436 446.461 85.7652 446.461C86.0944 446.461 86.3613 446.728 86.3613 447.057C86.3613 447.387 86.0944 447.653 85.7652 447.653Z" fill="#263238"/>
<path d="M87.107 450.337C86.7778 450.337 86.5109 450.07 86.5109 449.741C86.5109 449.411 86.7778 449.145 87.107 449.145C87.4362 449.145 87.7031 449.411 87.7031 449.741C87.7031 450.07 87.4362 450.337 87.107 450.337Z" fill="#263238"/>
<path d="M83.8277 450.337C83.4985 450.337 83.2316 450.07 83.2316 449.741C83.2316 449.411 83.4985 449.145 83.8277 449.145C84.1569 449.145 84.4238 449.411 84.4238 449.741C84.4238 450.07 84.1569 450.337 83.8277 450.337Z" fill="#263238"/>
<path d="M80.4 450.337C80.0708 450.337 79.8039 450.07 79.8039 449.741C79.8039 449.411 80.0708 449.145 80.4 449.145C80.7292 449.145 80.9961 449.411 80.9961 449.741C80.9961 450.07 80.7292 450.337 80.4 450.337Z" fill="#263238"/>
<path d="M76.8785 450.427C76.5493 450.427 76.2824 450.16 76.2824 449.831C76.2824 449.502 76.5493 449.235 76.8785 449.235C77.2077 449.235 77.4746 449.502 77.4746 449.831C77.4746 450.16 77.2077 450.427 76.8785 450.427Z" fill="#263238"/>
<path d="M73.4527 450.427C73.1235 450.427 72.8566 450.16 72.8566 449.831C72.8566 449.502 73.1235 449.235 73.4527 449.235C73.7819 449.235 74.0488 449.502 74.0488 449.831C74.0488 450.16 73.7819 450.427 73.4527 450.427Z" fill="#263238"/>
<path d="M70.1168 450.337C69.7876 450.337 69.5207 450.07 69.5207 449.741C69.5207 449.411 69.7876 449.145 70.1168 449.145C70.446 449.145 70.7129 449.411 70.7129 449.741C70.7129 450.07 70.446 450.337 70.1168 450.337Z" fill="#263238"/>
<path d="M66.8394 450.337C66.5102 450.337 66.2433 450.07 66.2433 449.741C66.2433 449.411 66.5102 449.145 66.8394 449.145C67.1686 449.145 67.4355 449.411 67.4355 449.741C67.4355 450.07 67.1686 450.337 66.8394 450.337Z" fill="#263238"/>
<path d="M68.3296 452.572C68.0004 452.572 67.7335 452.305 67.7335 451.976C67.7335 451.647 68.0004 451.38 68.3296 451.38C68.6589 451.38 68.9258 451.647 68.9258 451.976C68.9258 452.305 68.6589 452.572 68.3296 452.572Z" fill="#263238"/>
<path d="M71.6637 452.663C71.3344 452.663 71.0676 452.396 71.0676 452.066C71.0676 451.737 71.3344 451.47 71.6637 451.47C71.9929 451.47 72.2598 451.737 72.2598 452.066C72.2598 452.396 71.9929 452.663 71.6637 452.663Z" fill="#263238"/>
<path d="M75.2398 452.663C74.9106 452.663 74.6437 452.396 74.6437 452.066C74.6437 451.737 74.9106 451.47 75.2398 451.47C75.5691 451.47 75.8359 451.737 75.8359 452.066C75.8359 452.396 75.5691 452.663 75.2398 452.663Z" fill="#263238"/>
<path d="M78.6675 452.663C78.3383 452.663 78.0714 452.396 78.0714 452.066C78.0714 451.737 78.3383 451.47 78.6675 451.47C78.9967 451.47 79.2637 451.737 79.2637 452.066C79.2637 452.396 78.9967 452.663 78.6675 452.663Z" fill="#263238"/>
<path d="M82.1891 452.572C81.8598 452.572 81.5929 452.305 81.5929 451.976C81.5929 451.647 81.8598 451.38 82.1891 451.38C82.5183 451.38 82.7852 451.647 82.7852 451.976C82.7852 452.305 82.5183 452.572 82.1891 452.572Z" fill="#263238"/>
<path d="M85.7652 452.572C85.436 452.572 85.1691 452.305 85.1691 451.976C85.1691 451.647 85.436 451.38 85.7652 451.38C86.0944 451.38 86.3613 451.647 86.3613 451.976C86.3613 452.305 86.0944 452.572 85.7652 452.572Z" fill="#263238"/>
<path d="M571.744 332.903V347.209H492.908V559.425H485.606V347.209L156.104 348.849V559.425H148.951V348.401L98.1325 348.849V331.71L571.744 332.903Z" fill="#FF8F6B"/>
<path d="M521.223 344.378L490.076 366.732L492.907 369.414L524.203 345.719L521.223 344.378Z" fill="#FF8F6B"/>
<path d="M119.593 346.464L155.807 372.246L153.124 374.78L116.761 347.805L119.593 346.464Z" fill="#FF8F6B"/>
<path d="M375.474 327.686H456.992V333.647H375.474V327.686Z" fill="#263238"/>
</svg>
