<svg width="694" height="428" viewBox="0 0 694 428" fill="none" xmlns="http://www.w3.org/2000/svg">
<path opacity="0.1" d="M337.281 96.0332C365.893 91.9771 392.971 80.7954 416.321 63.9132C451.291 38.5899 524.301 -4.49265 594.022 16.9938C690.273 46.4828 690.711 132.1 665.607 178.581C640.613 225.062 462.911 361.215 232.59 339.619C26.4952 320.216 -13.6275 98.3354 96.2165 58.1031C191.7 23.352 224.149 112.038 337.281 96.0332Z" fill="#605BFF"/>
<path d="M661.332 223.417C657.033 223.417 653.549 219.932 653.549 215.634C653.549 211.335 657.033 207.85 661.332 207.85C665.631 207.85 669.115 211.335 669.115 215.634C669.115 219.932 665.631 223.417 661.332 223.417Z" fill="#FFCDB3"/>
<path opacity="0.2" d="M339.046 427.224C214.204 427.224 112.999 423.592 112.999 419.112C112.999 414.632 214.204 411 339.046 411C463.888 411 565.092 414.632 565.092 419.112C565.092 423.592 463.888 427.224 339.046 427.224Z" fill="#605BFF"/>
<path d="M388.037 104.475L387.708 106.229L387.27 108.092L386.393 111.929C385.845 114.56 385.187 117.081 384.529 119.712C383.871 122.343 383.214 124.865 382.446 127.386C381.788 129.907 381.021 132.429 380.254 134.95C379.486 137.472 378.609 139.883 377.732 142.295C376.855 144.707 375.978 147.119 374.992 149.311C374.005 151.613 373.019 153.806 371.922 155.998C370.826 158.081 369.73 160.164 368.524 161.918C367.318 163.782 366.112 165.426 365.016 166.741C363.81 168.057 362.714 169.153 361.727 169.701C361.289 170.03 360.85 170.249 360.521 170.359C360.192 170.469 359.973 170.578 359.644 170.688H359.535L359.096 170.797L358.11 171.017L356.136 171.346L352.08 172.003L348.024 172.661L343.968 173.319C341.227 173.757 338.596 174.196 335.856 174.525L331.8 175.182C330.484 175.402 329.059 175.621 327.743 175.84L325.661 176.169L323.578 176.498C322.92 176.608 322.262 176.717 321.495 176.827C320.837 176.936 320.07 177.046 319.522 177.156L318.974 177.265C312.615 178.471 308.34 184.61 309.546 191.078C310.532 196.34 314.917 200.177 320.07 200.615L322.262 200.835C323.03 200.944 323.687 200.944 324.455 201.054C325.88 201.164 327.415 201.273 328.84 201.383L331.032 201.492L333.225 201.602C334.65 201.602 336.075 201.712 337.61 201.712C339.035 201.712 340.57 201.712 341.995 201.712C343.42 201.712 344.955 201.712 346.38 201.712C349.34 201.712 352.19 201.602 355.15 201.492C356.575 201.383 358.11 201.383 359.535 201.273L361.727 201.164L362.823 201.054H363.372L364.358 200.944C366.88 200.615 369.401 199.958 371.703 199.081C374.005 198.204 376.088 197.107 378.061 196.011C380.034 194.805 381.788 193.599 383.323 192.174C384.968 190.859 386.393 189.434 387.708 188.118C389.024 186.693 390.23 185.268 391.435 183.843C392.532 182.418 393.628 180.993 394.615 179.567C396.588 176.717 398.342 173.867 399.877 170.907C401.411 168.057 402.836 165.097 404.042 162.247C405.358 159.397 406.454 156.437 407.55 153.586C408.647 150.736 409.633 147.776 410.62 144.926C411.497 142.076 412.374 139.116 413.251 136.266C414.018 133.415 414.786 130.456 415.443 127.605C416.101 124.755 416.759 121.795 417.417 118.835C417.745 117.41 417.965 115.875 418.294 114.45L418.732 112.258L418.951 111.162L419.171 109.846C420.486 101.295 414.566 93.2928 406.016 91.9773C397.684 90.6618 389.901 96.2527 388.256 104.365L388.037 104.475Z" fill="#FFAA8C"/>
<path d="M421.583 113.683C419.5 120.809 411.059 145.036 403.604 157.094L370.826 141.637C370.826 141.637 382.008 115.766 387.818 99.4317C389.682 94.1697 393.848 89.8944 399.219 88.0308C402.837 86.8249 407.112 86.496 411.936 88.7981C421.363 93.2927 422.35 103.707 422.24 108.859C422.35 110.613 422.021 112.148 421.583 113.683Z" fill="#605BFF"/>
<path d="M297.266 367.902L288.605 381.934L272.162 374.699L279.616 359.571L297.266 367.902Z" fill="#FFAA8C"/>
<path d="M220.04 382.237L282.197 409.753C283.074 409.095 283.841 407.999 284.499 406.683C287.24 401.64 289.213 392.432 290.748 386.731C290.967 386.074 291.076 385.416 291.296 384.868C291.625 383.881 291.844 383.114 292.063 382.675C293.927 378.4 289.871 377.413 289.871 377.413C280.881 380.812 277.812 368.424 272.331 369.63C272.331 369.63 269.919 370.068 263.012 372.371C256.106 374.673 246.35 373.796 237.908 373.686C226.946 373.467 222.671 376.207 220.917 378.619C219.711 380.483 220.04 382.237 220.04 382.237Z" fill="#EF37FF"/>
<path d="M220.091 382.702L282.249 410.218C283.126 409.56 283.893 408.464 284.551 407.148L220.968 378.974C219.763 380.948 220.091 382.702 220.091 382.702Z" fill="#605BFF"/>
<path d="M276 407.477L277.863 408.244C276.986 405.284 276.657 401.338 278.96 396.843C282.029 390.814 287.51 388.293 291.018 387.306C291.238 386.648 291.347 385.99 291.566 385.442C287.839 386.319 281.152 388.841 277.534 396.076C275.232 400.461 275.232 404.298 276 407.477Z" fill="#605BFF"/>
<path d="M262.515 377.001C262.953 377.221 263.501 377.111 263.83 376.673C264.159 376.234 264.159 375.467 263.611 375.138L260.103 372.397C259.665 372.068 258.897 372.068 258.568 372.616C258.239 373.055 258.239 373.822 258.788 374.151L262.296 376.892C262.405 376.892 262.515 376.892 262.515 377.001Z" fill="#605BFF"/>
<path d="M267.888 375.466C268.326 375.685 268.874 375.576 269.203 375.137C269.532 374.699 269.532 373.932 268.984 373.603L265.476 370.862C265.038 370.533 264.27 370.533 263.941 371.081C263.612 371.52 263.612 372.287 264.161 372.616L267.669 375.357C267.669 375.357 267.778 375.357 267.888 375.466Z" fill="#605BFF"/>
<path d="M257.691 377.55C258.129 377.769 258.677 377.659 259.006 377.221C259.335 376.782 259.335 376.015 258.787 375.686L255.279 372.945C254.84 372.616 254.073 372.616 253.744 373.165C253.415 373.603 253.415 374.37 253.963 374.699L257.471 377.44C257.471 377.44 257.581 377.44 257.691 377.55Z" fill="#605BFF"/>
<path d="M252.868 377.988C253.307 378.207 253.855 378.097 254.184 377.659C254.513 377.22 254.513 376.453 253.965 376.124L250.457 373.384C250.018 373.055 249.251 373.055 248.922 373.603C248.593 374.041 248.593 374.809 249.141 375.138L252.649 377.878C252.649 377.878 252.759 377.878 252.868 377.988Z" fill="#605BFF"/>
<path d="M247.716 378.098C248.154 378.317 248.703 378.207 249.031 377.769C249.36 377.33 249.36 376.563 248.812 376.234L245.304 373.493C244.866 373.164 244.098 373.164 243.769 373.713C243.441 374.151 243.441 374.918 243.989 375.247L247.497 377.988C247.497 377.988 247.606 378.098 247.716 378.098Z" fill="#605BFF"/>
<path d="M242.345 377.768C242.783 377.988 243.331 377.878 243.66 377.44C243.989 377.001 243.989 376.234 243.441 375.905L239.933 373.164C239.495 372.835 238.727 372.835 238.398 373.383C238.069 373.822 238.069 374.589 238.618 374.918L242.126 377.659C242.126 377.659 242.235 377.768 242.345 377.768Z" fill="#605BFF"/>
<path d="M335.855 231.749C341.665 226.048 387.159 213.332 417.416 221.773C420.924 228.46 425.309 245.342 414.456 261.018C374.662 267.486 352.518 280.86 352.518 280.86C352.518 280.86 338.376 313.419 330.045 325.368C321.713 337.317 302.419 375.357 302.419 375.357L273.478 362.969C273.588 362.969 320.178 247.206 335.855 231.749Z" fill="#1A060A"/>
<path d="M305.598 368.231C305.488 368.231 305.379 368.231 305.269 368.122L276.986 356.392C276.547 356.173 276.328 355.734 276.547 355.296C276.767 354.857 277.205 354.638 277.644 354.857L305.927 366.587C306.365 366.806 306.584 367.245 306.365 367.683C306.256 368.012 305.927 368.231 305.598 368.231Z" fill="#35252F"/>
<path d="M300.885 365.819C300.775 365.819 300.665 365.819 300.556 365.71C300.117 365.49 299.898 365.052 300.117 364.613C300.227 364.504 306.147 349.704 319.959 328.657C333.662 307.828 348.023 272.529 348.243 272.2C348.462 271.761 348.9 271.542 349.339 271.761C349.777 271.981 349.997 272.419 349.777 272.858C349.668 273.186 335.197 308.595 321.384 329.534C307.681 350.362 301.762 365.052 301.762 365.162C301.433 365.6 301.214 365.819 300.885 365.819Z" fill="#35252F"/>
<path d="M370.387 370.314L368.194 386.758H350.106L350.874 369.876L370.387 370.314Z" fill="#FFAA8C"/>
<path d="M305.658 414.686H373.735C374.283 413.809 374.502 412.493 374.612 410.959C375.05 405.148 373.187 396.05 372.31 390.24C372.2 389.582 372.091 388.924 371.981 388.376C371.871 387.389 371.762 386.622 371.762 385.964C371.762 381.25 367.596 382.018 367.596 382.018C360.69 388.814 352.906 378.619 348.302 382.018C348.302 382.018 346.329 383.443 340.957 388.266C335.585 393.09 326.377 396.379 318.594 399.558C308.508 403.833 305.658 407.999 305.11 410.849C304.671 413.261 305.658 414.686 305.658 414.686Z" fill="#EF37FF"/>
<path d="M305.708 415.151H373.785C374.333 414.274 374.552 412.958 374.662 411.423H305.16C304.722 413.725 305.708 415.151 305.708 415.151Z" fill="#605BFF"/>
<path d="M366.878 415.151H368.851C366.878 412.848 364.905 409.34 365.234 404.298C365.563 397.611 369.619 393.006 372.359 390.704C372.25 390.046 372.14 389.389 372.03 388.841C368.961 391.143 363.918 396.185 363.48 404.298C363.37 409.012 365.015 412.629 366.878 415.151Z" fill="#605BFF"/>
<path d="M342.322 392.678C342.87 392.678 343.309 392.349 343.418 391.801C343.528 391.252 343.199 390.595 342.651 390.485L338.376 389.389C337.828 389.279 337.17 389.608 337.06 390.156C336.951 390.704 337.279 391.362 337.828 391.472L342.103 392.568C342.103 392.678 342.213 392.678 342.322 392.678Z" fill="#605BFF"/>
<path d="M346.49 389.169C347.038 389.169 347.477 388.84 347.586 388.292C347.696 387.744 347.367 387.086 346.819 386.977L342.544 385.88C341.996 385.771 341.338 386.1 341.228 386.648C341.119 387.196 341.447 387.854 341.996 387.963L346.271 389.059C346.381 389.169 346.381 389.169 346.49 389.169Z" fill="#605BFF"/>
<path d="M338.049 395.198C338.597 395.198 339.035 394.869 339.145 394.321C339.255 393.773 338.926 393.115 338.378 393.005L334.102 391.909C333.554 391.8 332.896 392.128 332.787 392.677C332.677 393.225 333.006 393.882 333.554 393.992L337.83 395.088C337.83 395.198 337.939 395.198 338.049 395.198Z" fill="#605BFF"/>
<path d="M333.771 397.611C334.32 397.611 334.758 397.282 334.868 396.734C334.977 396.186 334.648 395.528 334.1 395.418L329.825 394.322C329.277 394.212 328.619 394.541 328.509 395.089C328.4 395.637 328.729 396.295 329.277 396.405L333.552 397.501C333.552 397.501 333.662 397.611 333.771 397.611Z" fill="#605BFF"/>
<path d="M329.168 399.803C329.716 399.803 330.155 399.474 330.264 398.926C330.374 398.378 330.045 397.72 329.497 397.611L325.221 396.514C324.673 396.405 324.016 396.734 323.906 397.282C323.796 397.83 324.125 398.488 324.673 398.597L328.949 399.694C328.949 399.803 329.058 399.803 329.168 399.803Z" fill="#605BFF"/>
<path d="M324.125 401.666C324.673 401.666 325.112 401.338 325.221 400.789C325.331 400.241 325.002 399.584 324.454 399.474L320.178 398.378C319.63 398.268 318.973 398.597 318.863 399.145C318.753 399.693 319.082 400.351 319.63 400.461L323.906 401.557C323.906 401.666 324.015 401.666 324.125 401.666Z" fill="#605BFF"/>
<path d="M389.244 98.2258C389.134 104.913 396.479 117.081 401.193 143.282C401.302 143.939 401.412 144.597 401.522 145.255C401.741 146.68 401.96 148.215 402.289 149.749C402.399 150.407 402.508 150.955 402.508 151.613C402.727 153.148 402.947 154.683 403.166 156.327C403.276 156.875 403.276 157.423 403.385 157.971C403.604 160.054 403.824 162.137 404.043 164.33C404.262 166.303 404.372 168.166 404.481 170.249C404.591 171.236 404.591 172.332 404.701 173.319C404.701 174.415 404.81 175.511 404.81 176.607C405.358 188.337 406.016 215.853 405.03 231.201C426.187 244.575 470.256 245.342 499.965 223.198C501.719 212.674 498.978 176.936 498.101 166.303C497.882 164.22 497.662 162.027 497.443 159.945C496.237 149.749 494.154 139.664 491.633 129.25C491.523 128.701 491.304 128.153 491.195 127.496C489.112 118.835 486.81 109.956 484.288 100.528C479.465 81.7821 470.914 71.2581 459.623 71.6966C454.361 71.8062 450.085 71.1485 446.797 70.3811C446.358 70.2715 446.029 70.1619 445.7 70.0522C441.754 68.956 439.452 67.6405 439.452 67.6405L414.896 72.3544C413.361 75.8624 411.059 78.2741 408.428 80.1377C408.099 80.357 407.88 80.5762 407.551 80.7955C399.658 86.1671 389.353 87.2633 389.244 98.2258Z" fill="#605BFF"/>
<path d="M402.288 149.749C402.397 150.407 402.507 150.955 402.507 151.613C402.726 153.147 402.945 154.682 403.165 156.326C403.274 156.875 403.274 157.423 403.384 157.971C403.603 160.054 403.822 162.136 404.042 164.329C404.261 166.302 404.371 168.166 404.48 170.249C404.59 171.235 404.59 172.332 404.699 173.318L411.387 181.759L419.17 160.602L405.028 142.294L402.288 149.749Z" fill="#605BFF"/>
<path d="M440.875 157.313L432.872 178.361L419.06 160.602L426.953 138.787L440.875 157.313Z" fill="#605BFF"/>
<path d="M462.801 154.244L454.579 175.292L440.876 157.313L448.988 135.608L462.801 154.244Z" fill="#AD2F24"/>
<path d="M484.615 151.503L476.174 172.331L462.69 154.243L471.022 132.647L484.615 151.503Z" fill="#605BFF"/>
<path d="M489.88 216.072C490.209 216.072 490.428 215.853 490.428 215.524C492.84 156.984 481.768 113.792 481.658 113.354C481.548 113.025 481.329 112.915 481 112.915C480.671 113.025 480.562 113.244 480.562 113.573C480.671 114.012 491.743 156.984 489.332 215.414C489.332 215.743 489.551 216.072 489.88 216.072Z" fill="white"/>
<path d="M426.516 93.6217C425.608 93.6217 424.871 92.8855 424.871 91.9774C424.871 91.0692 425.608 90.333 426.516 90.333C427.424 90.333 428.16 91.0692 428.16 91.9774C428.16 92.8855 427.424 93.6217 426.516 93.6217Z" fill="white"/>
<path d="M426.953 101.733C426.045 101.733 425.309 100.997 425.309 100.089C425.309 99.1809 426.045 98.4447 426.953 98.4447C427.861 98.4447 428.598 99.1809 428.598 100.089C428.598 100.997 427.861 101.733 426.953 101.733Z" fill="white"/>
<path d="M425.857 112.477C429.914 111.161 433.86 108.749 437.697 105.132C444.274 98.9927 448.111 91.4286 448.111 91.4286C448.221 91.0997 448.111 90.7708 447.892 90.6612C447.673 90.4419 447.344 90.5516 447.125 90.8804C447.125 90.9901 443.288 98.3349 436.93 104.364C428.379 112.367 419.499 114.45 410.51 110.613C410.181 110.503 409.962 110.613 409.852 110.942C409.743 111.271 409.852 111.6 410.181 111.709C415.334 114.011 420.595 114.34 425.748 112.696C425.748 112.477 425.748 112.477 425.857 112.477Z" fill="white"/>
<path d="M424.652 84.5227C430.462 83.4265 436.163 77.1778 436.492 76.849C436.711 76.6297 436.711 76.3008 436.492 75.972C436.273 75.6431 435.944 75.7527 435.724 75.972C435.615 76.0816 425.968 86.4959 419.829 82.6591C419.61 82.4398 419.281 82.5495 419.061 82.8783C418.952 83.2072 419.061 83.5361 419.281 83.6457C420.925 84.6323 422.789 84.8516 424.652 84.5227Z" fill="white"/>
<path d="M435.505 207.193C437.697 206.755 439.89 206.206 442.082 205.329C447.454 203.356 452.826 200.067 458.088 195.682C467.077 188.228 472.668 179.897 472.668 179.787C472.887 179.568 472.777 179.129 472.558 179.02C472.339 178.8 472.01 178.91 471.791 179.129C471.791 179.239 466.2 187.461 457.43 194.805C449.318 201.602 436.601 209.057 422.35 205.987C422.021 205.878 421.802 206.097 421.692 206.426C421.692 206.755 421.802 207.083 422.131 207.083C426.406 208.07 430.901 208.07 435.505 207.193Z" fill="white"/>
<path d="M432.436 37.9317C432.765 40.782 436.821 39.3568 438.794 37.3836C439.671 36.5066 439.233 34.5333 439.123 32.1216C439.013 29.1617 438.356 31.135 440.439 26.8596C442.631 22.2554 439.013 15.4586 436.054 15.8971C436.054 15.8971 438.575 8.99079 432.436 5.15392C426.955 1.75556 423.447 5.59242 423.447 5.59242C423.447 5.59242 421.474 -0.108064 416.431 0.0015611C411.388 0.111186 408.428 5.37317 408.428 5.37317C408.428 5.37317 404.372 1.53631 399 4.71542C393.629 7.89454 396.26 11.9507 396.26 11.9507C396.26 11.9507 390.34 12.2795 388.915 17.3223C387.599 21.5976 390.888 24.119 390.888 24.119C390.888 24.119 388.696 26.4211 390.121 31.0254C391.327 34.9718 394.287 34.7526 394.835 37.4932C395.164 39.028 395.821 40.782 396.369 42.0975C396.808 43.0841 398.123 44.6188 399.11 44.5092C400.426 44.2899 400.864 41.8782 400.426 40.5627C399.768 38.3702 399 35.1911 399.987 32.9986C401.631 29.4906 399.549 25.873 402.837 24.119C406.126 22.365 418.952 26.0922 426.297 19.5148C426.297 19.5148 426.736 24.4479 429.915 25.3249C433.094 26.2019 432.546 30.1484 432.546 33.4371C432.326 34.7526 432.436 37.9317 432.436 37.9317Z" fill="#030229"/>
<path d="M413.8 68.188L415.006 74.4366C415.883 74.8751 416.65 75.3136 417.527 75.5329C429.586 80.0275 439.781 69.7228 439.781 69.7228L435.725 48.1267L416.541 65.7763L413.8 68.188Z" fill="#FFAA8C"/>
<path d="M413.801 68.1883L415.007 74.4369C415.884 74.8754 416.651 75.3139 417.528 75.5332C426.079 70.1616 430.902 59.1991 430.902 59.1991L416.432 65.7766L413.801 68.1883Z" fill="#D0886F"/>
<path d="M400.753 41.9877C400.753 41.9877 396.368 38.4797 395.162 43.0839C393.956 47.6882 397.135 55.8004 402.178 53.3886L400.753 41.9877Z" fill="#FFAA8C"/>
<path d="M399.766 57.4452C399.766 57.4452 402.178 70.3809 415.552 67.7499C428.926 65.2286 435.942 52.9506 436.381 52.4025L436.052 49.6618L434.188 35.4106L433.202 27.8465C433.202 27.8465 432.325 14.0338 418.951 13.9242C409.194 13.9242 400.643 17.1033 397.135 22.9134C397.026 23.1327 396.916 23.2423 396.806 23.4615C395.71 25.4348 395.272 27.7369 395.491 30.2583L397.683 43.8517L398.231 47.1405L399.766 57.4452Z" fill="#FFAA8C"/>
<path d="M420.377 29.052C419.938 30.6964 418.404 31.683 416.759 31.3542C415.773 31.1349 414.676 30.9157 413.58 30.9157C411.936 30.9157 410.73 29.4905 410.84 27.8462C410.73 27.8462 416.869 26.0922 420.377 29.052Z" fill="#35252F"/>
<path d="M396.149 33.6567C397.136 35.0818 398.999 35.4107 400.425 34.424C401.192 33.8759 402.179 33.3278 403.275 32.8893C404.81 32.2315 405.467 30.4776 404.7 29.0524C404.7 28.9428 398.342 29.6006 396.149 33.6567Z" fill="#35252F"/>
<path d="M397.002 23.176C399.02 22.0564 400.701 22.3923 404.288 23.288C409.557 24.5195 414.601 21.6086 418.86 18.2498C423.232 14.891 426.707 17.8019 425.474 20.2651C424.241 22.8401 424.801 24.6315 427.155 27.0946C429.509 29.5577 424.577 31.9088 427.828 33.5882C429.173 34.26 429.397 35.7155 429.173 37.1709C428.949 38.7384 430.406 39.9699 431.863 39.4101C433.321 38.7384 435.002 35.4915 435.002 35.4915L433.993 27.7663C433.993 27.7663 433.096 13.6594 419.421 13.5475C409.444 13.5475 400.701 16.7943 397.114 22.7282C397.226 22.8401 397.114 22.9521 397.002 23.176Z" fill="#030229"/>
<path d="M420.052 43.0588C417.673 43.5107 415.598 43.1056 415.417 42.1539C415.236 41.2023 417.018 40.0645 419.397 39.6126C421.776 39.1606 423.852 39.5658 424.032 40.5174C424.213 41.4691 422.431 42.6069 420.052 43.0588Z" fill="#FD9983"/>
<path d="M398.122 47.1401C398.451 47.1401 398.78 47.0305 399.219 47.0305C401.63 46.592 403.384 45.4957 403.165 44.5091C402.946 43.5225 400.863 43.1936 398.561 43.6321C398.232 43.7417 397.903 43.7417 397.684 43.8513L398.122 47.1401Z" fill="#FD9983"/>
<path d="M415.471 39.3096C414.757 39.4452 413.977 38.4943 413.729 37.1858C413.48 35.8773 413.857 34.7066 414.571 34.571C415.285 34.4355 416.065 35.3863 416.313 36.6949C416.562 38.0034 416.185 39.1741 415.471 39.3096Z" fill="#35252F"/>
<path d="M402.524 41.719C401.81 41.8546 401.03 40.9038 400.781 39.5952C400.533 38.2867 400.91 37.116 401.624 36.9805C402.337 36.8449 403.118 37.7958 403.366 39.1043C403.615 40.4128 403.237 41.5835 402.524 41.719Z" fill="#35252F"/>
<path d="M408.647 51.3061C413.361 50.4291 416.43 45.6056 416.54 45.6056C416.65 45.3864 416.65 45.0575 416.321 44.8383C416.101 44.7286 415.773 44.7286 415.553 45.0575C415.334 45.3864 410.511 52.7312 403.933 49.6618C403.714 49.5521 403.385 49.6618 403.166 49.881C403.056 50.1003 403.166 50.4291 403.385 50.6484C405.358 51.5254 407.112 51.635 408.647 51.3061Z" fill="#35252F"/>
<path d="M431.229 47.9078C431.338 48.0175 433.75 51.6351 436.381 52.2928L436.052 49.5522C436.052 49.6618 433.859 49.6618 431.229 47.9078Z" fill="#35252F"/>
<path d="M431.887 38.5897C431.887 38.5897 435.724 30.6967 440.548 35.4106C444.494 39.3571 440.877 52.0735 433.97 49.2233L431.887 38.5897Z" fill="#FFAA8C"/>
<path d="M434.189 47.0303C434.408 47.0303 434.627 46.7014 434.627 46.4822C434.189 41.1106 438.245 38.4796 438.464 38.37C438.683 38.2603 438.793 37.8218 438.574 37.6026C438.464 37.3833 438.135 37.2737 437.806 37.3833C437.587 37.493 433.093 40.4528 433.531 46.4822C433.641 46.8111 433.86 47.0303 434.189 47.0303Z" fill="#35252F"/>
<path d="M438.575 42.8646C438.685 42.8646 438.904 42.755 438.904 42.5358C439.014 42.3165 438.904 41.9877 438.685 41.7684C438.466 41.6588 436.273 40.4529 434.739 41.2203C434.519 41.3299 434.3 41.6588 434.519 41.9876C434.629 42.2069 434.958 42.4261 435.287 42.2069C436.164 41.7684 437.698 42.4261 438.247 42.755C438.356 42.8646 438.466 42.8646 438.575 42.8646Z" fill="#35252F"/>
<path d="M389.353 42.0975L397.246 40.8916L397.465 41.9878L389.572 43.1937C389.243 43.1937 389.024 43.0841 388.914 42.7552C388.805 42.4263 389.024 42.2071 389.353 42.0975Z" fill="#605BFF"/>
<path d="M420.267 45.3864C425.31 44.3998 428.709 39.5763 427.722 34.4239C426.735 29.3812 421.912 25.9828 416.759 26.9694C411.717 27.9561 408.318 32.7796 409.305 37.9319C410.292 43.0843 415.225 46.373 420.267 45.3864ZM416.979 28.1753C421.473 27.2983 425.749 30.2582 426.626 34.7528C427.503 39.2474 424.543 43.5228 420.048 44.3998C415.554 45.2768 411.278 42.3169 410.401 37.8223C409.634 33.3277 412.594 29.0523 416.979 28.1753Z" fill="#605BFF"/>
<path d="M398.562 49.5519C403.605 48.5653 407.004 43.7418 406.017 38.5895C405.03 33.5467 400.207 30.1483 395.054 31.135C390.012 32.1216 386.613 36.9451 387.6 42.0974C388.696 47.1402 393.52 50.5385 398.562 49.5519ZM395.383 32.2312C399.878 31.3542 404.153 34.3141 405.03 38.8087C405.907 43.3033 402.947 47.5787 398.453 48.4557C393.958 49.3327 389.683 46.3728 388.806 41.8782C387.929 37.3836 390.889 33.1082 395.383 32.2312Z" fill="#605BFF"/>
<path d="M438.903 34.3144C439.013 34.3144 439.013 34.3144 439.123 34.2048C439.342 34.0952 439.451 33.6567 439.342 33.4374C435.724 27.6273 426.735 32.6701 426.625 32.6701C426.406 32.7797 426.296 33.1086 426.406 33.4374C426.516 33.6567 426.845 33.7663 427.173 33.6567C427.283 33.6567 435.286 29.0524 438.355 33.9856C438.465 34.3144 438.684 34.4241 438.903 34.3144Z" fill="#605BFF"/>
<path d="M409.634 44.619C409.963 44.5094 410.072 44.2901 410.072 43.9612C409.963 43.6324 409.743 43.5227 409.415 43.5227C407.441 43.8516 406.345 43.0842 406.016 42.6457C407.332 37.9319 408.538 33.1084 408.538 32.9988C408.647 32.6699 408.428 32.4506 408.099 32.341C407.77 32.2314 407.551 32.4506 407.441 32.7795C407.441 32.7795 406.126 37.8223 404.81 42.6457C404.81 42.7554 404.81 42.9746 404.92 43.0842C405.03 43.3035 406.455 45.2767 409.634 44.619Z" fill="#35252F"/>
<path d="M405.14 37.2743C405.249 37.2743 405.359 37.1647 405.468 37.055C406.674 35.1914 409.196 36.0684 409.196 36.0684C409.525 36.178 409.853 36.0684 409.853 35.7396C409.963 35.4107 409.853 35.0818 409.525 35.0818C408.319 34.6433 405.797 34.4241 404.482 36.3973C404.263 36.6165 404.372 36.9454 404.591 37.1647C404.92 37.2743 405.03 37.3839 405.14 37.2743Z" fill="#605BFF"/>
<path d="M438.356 62.3782C438.356 62.3782 447.455 62.1589 449.318 70.8193L443.837 82.9876C443.837 82.9876 438.685 75.9717 426.626 76.4102C426.516 76.4102 435.506 69.7231 438.356 62.3782Z" fill="white"/>
<path d="M419.721 76.191C419.721 76.191 415.226 74.437 414.02 69.6135C414.02 69.6135 406.018 74.2178 406.127 81.5626L413.472 85.1802C413.582 85.2899 416.103 78.822 419.721 76.191Z" fill="white"/>
<path d="M500.183 222.211C500.183 222.211 514.215 277.681 441.424 277.681C402.507 277.681 383.981 273.954 383.981 273.954C383.981 273.954 382.994 308.267 381.24 322.847C379.377 337.317 373.018 373.493 373.018 373.493L342.323 375.905C342.323 375.905 337.39 250.166 356.246 238.545C374.992 226.925 402.069 226.596 448.44 222.211C448.44 221.992 490.098 214.976 500.183 222.211Z" fill="#35252F"/>
<path d="M368.853 363.298C368.744 363.298 368.744 363.298 368.634 363.298C368.196 363.188 367.867 362.75 367.976 362.311C372.252 344.662 373.896 319.229 375.212 298.948C376.527 278.887 377.294 268.363 379.377 266.499C381.679 264.417 388.476 265.184 399.768 266.39C413.8 267.925 434.957 270.117 457.759 267.486C469.05 266.171 477.82 261.786 483.63 254.331C494.045 240.957 491.633 222.211 491.633 221.992C491.523 221.553 491.852 221.115 492.4 221.005C492.839 220.896 493.277 221.224 493.387 221.773C493.497 222.54 495.908 241.395 485.056 255.318C478.917 263.101 469.927 267.815 458.088 269.13C435.067 271.761 413.8 269.459 399.768 268.034C390.011 267.048 382.337 266.171 380.583 267.705C380.145 268.034 379.377 269.788 378.61 277.352C378.062 282.943 377.514 290.398 376.966 299.058C375.65 319.448 373.896 344.881 369.621 362.75C369.621 363.079 369.182 363.298 368.853 363.298Z" fill="#67505A"/>
<path d="M342.763 365.82C342.324 365.82 341.995 365.491 341.886 365.052C341.886 364.614 342.215 364.175 342.653 364.175L374.006 362.312C374.444 362.312 374.883 362.641 374.883 363.079C374.883 363.518 374.554 363.956 374.115 363.956L342.763 365.82Z" fill="#67505A"/>
<path d="M449.316 95.0464L449.206 97.2389L449.097 99.5411C448.987 101.076 448.878 102.72 448.768 104.255C448.439 107.434 448.22 110.504 447.781 113.683C447.562 115.217 447.452 116.862 447.233 118.397C447.014 119.931 446.795 121.466 446.575 123.11C446.137 126.18 445.589 129.249 445.041 132.319C444.493 135.388 443.835 138.348 443.177 141.308C442.848 142.733 442.41 144.268 442.081 145.693C441.642 147.118 441.313 148.543 440.875 149.859C439.998 152.599 439.011 155.23 438.025 157.752C436.928 160.164 435.832 162.466 434.626 164.329C433.42 166.193 432.215 167.618 431.228 168.495C430.79 168.934 430.351 169.262 430.022 169.372L429.913 169.482H429.803C429.584 169.591 429.255 169.701 429.036 169.811L428.597 170.03L428.159 170.249C427.83 170.359 427.61 170.468 427.282 170.578C426.076 171.016 424.76 171.455 423.445 171.893C422.129 172.332 420.704 172.661 419.169 172.99C416.209 173.757 413.25 174.415 410.18 174.963C407.111 175.511 403.931 176.169 400.752 176.607C399.218 176.826 397.573 177.155 396.038 177.375C394.394 177.594 392.859 177.923 391.215 178.142C388.036 178.58 384.747 179.019 381.568 179.457L371.921 180.663H371.592C365.124 181.54 360.63 187.46 361.397 193.818C362.164 199.519 366.878 203.794 372.469 204.013L373.785 204.123H375.1C375.977 204.123 376.854 204.233 377.731 204.233C379.485 204.233 381.13 204.342 382.884 204.342C386.282 204.342 389.79 204.342 393.188 204.233C394.942 204.233 396.696 204.123 398.341 204.013C400.095 203.904 401.849 203.794 403.603 203.685C407.111 203.465 410.619 203.246 414.127 202.808C417.635 202.369 421.252 201.931 424.87 201.382C428.487 200.725 432.215 199.957 436.161 198.861C436.709 198.751 437.148 198.532 437.696 198.423L438.463 198.203L439.231 197.984C439.779 197.765 440.327 197.655 440.765 197.436H440.875H440.985L441.204 197.326L441.752 197.107C442.081 196.997 442.41 196.778 442.739 196.669C445.37 195.463 447.891 193.928 449.974 192.284C454.249 188.995 457.319 185.268 459.95 181.54C462.471 177.813 464.444 174.195 466.198 170.578C467.843 166.96 469.268 163.343 470.474 159.725C471.131 157.971 471.68 156.107 472.228 154.353C472.776 152.599 473.214 150.736 473.653 148.982C474.53 145.474 475.407 141.856 476.065 138.348C476.722 134.84 477.38 131.332 477.928 127.824C478.147 126.07 478.476 124.316 478.696 122.562C478.915 120.808 479.134 119.054 479.353 117.3C479.682 113.792 480.011 110.284 480.23 106.776C480.34 105.022 480.45 103.268 480.559 101.514L480.669 98.8833V97.5678V96.0331C480.888 87.3727 473.982 80.2471 465.321 80.0279C456.88 79.9182 449.864 86.3861 449.426 94.7176L449.316 95.0464Z" fill="#FFAA8C"/>
<path d="M376.524 178.69C376.524 178.69 380.58 191.735 378.059 202.259C376.524 203.356 374.112 203.904 372.249 203.465C372.249 203.465 374.77 191.845 370.714 178.69C372.578 177.923 374.551 177.923 376.524 178.69Z" fill="#35252F"/>
<path d="M376.196 202.15C372.079 202.15 368.741 198.812 368.741 194.695C368.741 190.578 372.079 187.241 376.196 187.241C380.313 187.241 383.65 190.578 383.65 194.695C383.65 198.812 380.313 202.15 376.196 202.15Z" fill="#35252F"/>
<path d="M376.526 199.957C379.485 199.738 381.678 197.217 381.568 194.257C381.349 191.297 378.828 189.105 375.868 189.214C372.908 189.433 370.715 191.955 370.825 194.915C371.044 197.875 373.675 200.177 376.526 199.957Z" fill="white"/>
<path d="M443.837 178.252C443.946 178.252 444.056 178.252 444.166 178.142C444.385 177.923 444.385 177.594 444.166 177.375C439.342 172.003 431.668 168.714 431.34 168.605C431.011 168.495 430.791 168.605 430.572 168.933C430.463 169.262 430.572 169.482 430.901 169.701C431.011 169.701 438.684 172.99 443.289 178.252C443.508 178.252 443.618 178.252 443.837 178.252Z" fill="#D0886F"/>
<path d="M442.63 171.345C442.85 171.345 443.069 171.126 443.179 170.907C443.288 170.578 443.069 170.358 442.74 170.249C442.521 170.139 436.382 168.824 432.216 169.043C431.887 169.043 431.668 169.372 431.668 169.591C431.668 169.92 431.997 170.139 432.216 170.139C436.163 169.92 442.411 171.345 442.411 171.345C442.63 171.345 442.63 171.345 442.63 171.345Z" fill="#D0886F"/>
<path d="M484.287 97.3485C484.177 104.693 482.095 130.346 478.039 143.939L442.41 137.362C442.41 137.362 446.576 109.517 448.111 92.1961C448.549 86.6053 451.509 81.4529 456.223 78.2738C459.402 76.1909 463.568 74.7658 468.72 75.7524C479.025 77.7257 482.643 87.4823 483.849 92.4154C484.177 94.1694 484.287 95.7041 484.287 97.3485Z" fill="#605BFF"/>
<path d="M478.038 144.487C478.258 144.487 478.477 144.378 478.586 144.159C485.164 123.439 484.616 102.611 484.616 102.392C484.616 102.063 484.397 101.843 484.068 101.843C483.739 101.843 483.52 102.063 483.52 102.392C483.52 102.611 484.068 123.22 477.49 143.83C477.381 144.159 477.6 144.378 477.819 144.487C477.929 144.487 477.929 144.487 478.038 144.487Z" fill="white"/>
<path d="M442.411 137.909C442.631 137.909 442.85 137.69 442.959 137.471C445.042 125.631 447.893 99.5408 447.893 99.3216C447.893 98.9927 447.673 98.7734 447.454 98.6638C447.125 98.6638 446.906 98.8831 446.796 99.1023C446.796 99.3216 443.946 125.412 441.863 137.142C441.754 137.581 441.973 137.909 442.411 137.909C442.302 137.909 442.411 137.909 442.411 137.909Z" fill="white"/>
<path d="M497.114 355.186H398.78C396.478 355.186 394.614 353.323 394.614 351.021C394.614 348.719 396.478 346.855 398.78 346.855H497.114C499.416 346.855 501.279 348.719 501.279 351.021C501.279 353.323 499.416 355.186 497.114 355.186Z" fill="#EF37FF"/>
<path d="M389.681 418.769C389.462 418.769 389.352 418.769 389.133 418.769C386.831 418.44 385.296 416.357 385.515 414.055L403.493 280.313C403.822 278.23 405.576 276.695 407.659 276.695H487.905C489.987 276.695 491.741 278.23 492.07 280.313L509.72 414.165C510.049 416.467 508.404 418.55 506.102 418.878C503.8 419.207 501.717 417.563 501.388 415.261L484.177 285.136H411.167L393.737 415.37C393.518 417.344 391.764 418.769 389.681 418.769Z" fill="#FFD66B"/>
<path d="M430.9 280.861H483.081C499.635 280.861 517.284 271.872 519.806 255.538C523.204 233.722 524.081 212.565 523.094 193.161C521.998 171.236 510.816 150.846 493.496 137.252C493.496 137.252 506.431 203.685 497.004 245.233C491.522 268.912 430.9 280.861 430.9 280.861Z" fill="#FFD66B"/>
<path d="M294.417 205.329H420.157C420.486 205.329 420.705 205.109 420.705 204.781C420.705 200.834 417.526 197.765 413.689 197.765H294.527C294.198 197.765 293.979 197.984 293.979 198.313V204.89C293.869 205.109 294.198 205.329 294.417 205.329Z" fill="#EF37FF"/>
<path d="M252.095 135.371L267.772 201.803C268.21 203.557 269.745 204.873 271.608 204.873H368.297C370.819 204.873 372.682 202.461 372.134 200.049L356.458 133.617C356.019 131.863 354.485 130.547 352.621 130.547H255.932C253.411 130.547 251.547 132.959 252.095 135.371Z" fill="#EF37FF"/>
<path d="M302.978 167.975C303.965 173.237 309.007 177.403 314.16 177.403C319.312 177.403 322.82 173.127 321.834 167.975C320.847 162.713 315.804 158.547 310.652 158.547C305.5 158.547 301.992 162.713 302.978 167.975Z" fill="#FFD66B"/>
<path d="M349.12 131.003L365.783 205.219H368.633C371.155 205.219 373.018 202.807 372.47 200.396L356.794 133.963C356.355 132.209 354.821 130.893 352.957 130.893H349.12V131.003Z" fill="#EF37FF"/>
<path d="M158.702 210.59V215.742C158.702 218.702 161.223 221.114 164.293 221.114H549.843C552.912 221.114 555.434 218.702 555.434 215.742V210.59C555.434 207.63 552.912 205.218 549.843 205.218H164.293C161.113 205.218 158.702 207.63 158.702 210.59Z" fill="#605BFF"/>
<path d="M179.969 234.159H522.985C530.001 234.159 535.592 228.459 535.592 221.552V221.004H167.253V221.552C167.362 228.459 172.953 234.159 179.969 234.159Z" fill="#605BFF"/>
<path d="M174.488 299.276H523.424V308.375H174.488V299.276Z" fill="#605BFF"/>
<path d="M540.087 420.412L495.141 234.159H510.927L555.873 420.412H540.087Z" fill="#605BFF"/>
<path d="M159.8 420.412L204.746 234.159H188.96L144.014 420.412H159.8Z" fill="#605BFF"/>
<path d="M158.592 213.112H555.324V215.414H158.592V213.112Z" fill="#1B48CA"/>
<path d="M520.071 162.33L524.947 163.076L519.304 199.92L514.428 199.173L520.071 162.33Z" fill="#FAB623"/>
<path d="M520.075 162.357L524.898 163.124L523.802 159.397L523.254 157.424L522.158 159.068L520.075 162.357Z" fill="#FF8C64"/>
<path d="M514.815 196.551L519.691 197.298L519.276 200.007L514.4 199.26L514.815 196.551Z" fill="#35252F"/>
<path d="M514.374 201.383L518.649 202.041C518.868 202.041 518.978 201.931 518.978 201.712L519.307 199.848L514.374 199.081L514.045 200.944C514.045 201.164 514.154 201.383 514.374 201.383Z" fill="#EF452F"/>
<path d="M522.158 159.068L523.803 159.397L523.255 157.423L522.158 159.068Z" fill="#35252F"/>
<path d="M519.677 197.301L514.801 196.554L515.1 194.603L519.976 195.35L519.677 197.301Z" fill="#F68407"/>
<path d="M523.473 164.768L519.307 192.065C519.307 192.284 519.088 192.394 518.868 192.394C518.649 192.394 518.54 192.174 518.54 191.955L522.705 164.658C522.705 164.439 522.925 164.33 523.144 164.33C523.363 164.33 523.473 164.549 523.473 164.768Z" fill="#F68407"/>
<path d="M521.5 164.439L517.334 191.736C517.334 191.955 517.115 192.065 516.896 192.065C516.677 192.065 516.567 191.846 516.567 191.626L520.733 164.33C520.733 164.111 520.952 164.001 521.171 164.001C521.39 164.001 521.5 164.22 521.5 164.439Z" fill="#F68407"/>
<path d="M511.254 162.459L516.188 162.475L516.066 199.747L511.133 199.731L511.254 162.459Z" fill="#4F9D5C"/>
<path d="M511.196 162.465L516.129 162.575L514.485 158.957L513.717 157.203L512.84 158.957L511.196 162.465Z" fill="#FF8C64"/>
<path d="M511.088 197.1L516.021 197.116L516.013 199.856L511.079 199.84L511.088 197.1Z" fill="#35252F"/>
<path d="M511.415 201.931H515.691C515.91 201.931 516.02 201.821 516.02 201.602V199.738H511.086V201.602C511.086 201.821 511.196 201.931 511.415 201.931Z" fill="#EF452F"/>
<path d="M512.84 158.958H514.484L513.717 157.204L512.84 158.958Z" fill="#35252F"/>
<path d="M516.023 197.117L511.09 197.101L511.096 195.127L516.029 195.144L516.023 197.117Z" fill="#3C7341"/>
<path d="M514.924 164.329L514.814 191.955C514.814 192.174 514.595 192.284 514.485 192.284C514.266 192.284 514.156 192.064 514.156 191.955L514.266 164.329C514.266 164.11 514.485 164 514.595 164C514.705 164 514.924 164.11 514.924 164.329Z" fill="#3C7341"/>
<path d="M512.949 164.33L512.84 191.956C512.84 192.175 512.62 192.284 512.511 192.284C512.291 192.284 512.182 192.065 512.182 191.956L512.291 164.33C512.291 164.111 512.511 164.001 512.62 164.001C512.84 164.001 512.949 164.111 512.949 164.33Z" fill="#3C7341"/>
<path d="M502.663 163.026L507.547 162.332L512.791 199.235L507.907 199.93L502.663 163.026Z" fill="#1B6BFE"/>
<path d="M502.645 163.014L507.578 162.357L505.495 159.068L504.399 157.423L503.741 159.287L502.645 163.014Z" fill="#FF8C64"/>
<path d="M507.51 197.279L512.395 196.585L512.78 199.299L507.896 199.993L507.51 197.279Z" fill="#35252F"/>
<path d="M508.564 202.041L512.839 201.383C513.058 201.383 513.168 201.164 513.168 201.054L512.949 199.191L508.016 199.848L508.235 201.712C508.235 201.931 508.344 202.041 508.564 202.041Z" fill="#EF452F"/>
<path d="M503.74 159.287L505.494 159.068L504.398 157.423L503.74 159.287Z" fill="#35252F"/>
<path d="M512.425 196.507L507.541 197.201L507.263 195.247L512.148 194.553L512.425 196.507Z" fill="#1B48CA"/>
<path d="M506.591 164.33L510.428 191.626C510.428 191.846 510.318 192.065 510.099 192.065C509.88 192.065 509.66 191.955 509.66 191.736L505.823 164.439C505.823 164.22 505.933 164.001 506.152 164.001C506.372 164.001 506.591 164.111 506.591 164.33Z" fill="#1B48CA"/>
<path d="M504.728 164.659L508.564 191.955C508.564 192.174 508.455 192.394 508.236 192.394C508.016 192.394 507.797 192.284 507.797 192.065L503.96 164.768C503.96 164.549 504.07 164.33 504.289 164.33C504.508 164.22 504.618 164.439 504.728 164.659Z" fill="#1B48CA"/>
<path d="M501 177.265L501.328 179.239L501.548 181.102L501.877 183.843L502.096 185.597L502.534 188.447L502.754 190.201L503.082 192.942L503.302 194.696L503.631 197.546L503.85 199.3L504.288 202.15L504.508 203.794L504.727 205.329H524.13L524.35 203.794L524.569 202.15L524.898 199.3L525.117 197.546L525.446 194.696L525.665 192.942L526.104 190.201L526.323 188.447L526.652 185.597L526.871 183.843L527.2 181.102L527.419 179.239L527.748 177.265H501Z" fill="#EF452F"/>
<path d="M501.329 179.238L501.548 181.102H527.201L527.42 179.238H501.329Z" fill="#AD2F24"/>
<path d="M501.877 183.843L502.096 185.597H526.652L526.871 183.843H501.877Z" fill="#AD2F24"/>
<path d="M502.536 188.446L502.755 190.2H526.105L526.324 188.446H502.536Z" fill="#AD2F24"/>
<path d="M503.083 192.942L503.303 194.696H525.447L525.666 192.942H503.083Z" fill="#AD2F24"/>
<path d="M503.631 197.546L503.85 199.3H524.898L525.117 197.546H503.631Z" fill="#AD2F24"/>
<path d="M504.29 202.149L504.509 203.793H524.351L524.57 202.149H504.29Z" fill="#AD2F24"/>
<path d="M176.57 176.608H218.557V182.637H176.57V176.608Z" fill="#FAB623"/>
<path d="M175.913 200.287C180.189 205.33 192.357 205.439 196.304 205.33C197.071 205.33 197.51 205.33 197.51 205.33C197.51 205.33 213.953 206.426 219.106 200.287C221.956 196.779 220.421 191.627 218.448 187.79C218.009 186.913 217.461 186.036 217.023 185.268C216.036 183.624 215.269 182.637 215.269 182.637H179.75C179.75 182.637 178.106 184.83 176.571 187.68C174.708 191.627 173.063 196.779 175.913 200.287Z" fill="#FAB623"/>
<path d="M211.103 195.573C212.857 201.164 206.279 205.439 197.51 205.22C197.51 205.22 213.953 206.316 219.106 200.177C221.956 196.669 220.421 191.517 218.448 187.68C218.448 187.571 218.338 187.461 218.338 187.461C218.338 187.351 218.229 187.242 218.229 187.242C217.9 186.584 217.461 185.926 217.132 185.268C216.146 183.624 215.378 182.637 215.378 182.637H179.86C179.86 182.637 178.216 184.83 176.681 187.68H192.576C196.523 187.68 200.469 188.448 204.197 189.873C207.266 191.188 210.336 193.052 211.103 195.573Z" fill="#F68407"/>
<path d="M182.711 171.235C183.149 172.003 183.697 172.661 184.136 173.209C185.561 175.182 186.767 176.497 186.876 176.607H208.253C208.363 176.497 209.459 175.182 210.994 173.209C211.432 172.551 211.98 171.893 212.419 171.235C215.05 167.289 217.791 162.027 217.023 158.08C216.804 156.875 216.475 155.998 215.927 155.449C215.708 155.121 215.488 154.901 215.16 154.792C212.857 153.476 209.349 156.546 208.253 156.436C206.718 156.326 209.24 148.762 212.748 143.391C216.037 138.348 218.119 131.771 214.173 129.359C214.063 129.249 213.844 129.14 213.734 129.14C213.625 129.03 213.406 129.03 213.296 128.92C208.144 127.057 206.28 133.963 204.088 132.976C201.895 131.99 208.582 109.736 198.168 109.736C198.058 109.736 197.839 109.736 197.62 109.736C197.4 109.736 197.291 109.736 197.072 109.736C186.657 109.736 193.344 132.099 191.152 132.976C188.959 133.963 187.205 126.947 181.943 128.92C181.834 129.03 181.614 129.03 181.505 129.14C181.395 129.249 181.176 129.249 181.066 129.359C177.01 131.771 179.203 138.458 182.491 143.391C185.999 148.762 188.411 156.217 186.986 156.436C185.89 156.546 182.382 153.367 180.08 154.792C179.86 154.901 179.532 155.121 179.312 155.449C178.874 155.998 178.545 156.875 178.216 158.08C177.339 162.027 180.08 167.289 182.711 171.235Z" fill="#4F9D5C"/>
<path d="M197.072 109.737V176.608H198.059V109.737C197.949 109.737 197.73 109.737 197.51 109.737C197.401 109.737 197.182 109.737 197.072 109.737Z" fill="#3C7341"/>
<path d="M197.181 148.106L197.51 148.435L197.839 148.764L197.949 148.654L214.393 129.689L213.954 129.36C213.844 129.25 213.625 129.141 213.516 129.141L197.949 147.119L197.401 147.667L197.181 148.106Z" fill="#3C7341"/>
<path d="M197.18 175.511L197.509 175.84L197.838 176.168L197.948 176.059L215.816 155.449C215.597 155.121 215.378 154.901 215.049 154.792L197.948 174.524L197.399 175.072L197.18 175.511Z" fill="#3C7341"/>
<path d="M180.629 129.579L197.072 148.544L197.182 148.654L197.511 148.325L197.84 147.996L197.511 147.558L196.963 147.009L181.396 129.031C181.287 129.141 181.067 129.141 180.958 129.25L180.629 129.579Z" fill="#3C7341"/>
<path d="M179.094 155.34L196.963 175.949L197.073 176.059L197.402 175.73L197.73 175.401L197.402 174.963L196.853 174.414L179.752 154.682C179.642 154.901 179.423 155.121 179.094 155.34Z" fill="#3C7341"/>
<path opacity="0.2" d="M619.675 423.811C589.584 423.811 565.191 421.897 565.191 419.535C565.191 417.174 589.584 415.26 619.675 415.26C649.765 415.26 674.158 417.174 674.158 419.535C674.158 421.897 649.765 423.811 619.675 423.811Z" fill="#605BFF"/>
<path d="M580.65 400.9L572.209 274.283H669.885L661.334 400.9H580.65Z" fill="#EF452F"/>
<path d="M572.976 286.232L668.678 291.713L669.336 281.737H572.647L572.976 286.232Z" fill="#AD2F24"/>
<path d="M568.919 281.737H673.062C674.487 281.737 675.693 280.531 675.693 279.106V273.296C675.693 271.871 674.487 270.665 673.062 270.665H568.919C567.494 270.665 566.288 271.871 566.288 273.296V279.106C566.288 280.531 567.494 281.737 568.919 281.737Z" fill="#EF5F44"/>
<path d="M583.171 302.019L585.583 344.334H656.51L658.922 302.019H583.171Z" fill="#AD2F24"/>
<path d="M620.99 328.437C619.053 328.437 617.482 326.866 617.482 324.929C617.482 322.992 619.053 321.421 620.99 321.421C622.927 321.421 624.498 322.992 624.498 324.929C624.498 326.866 622.927 328.437 620.99 328.437Z" fill="#EF452F"/>
<path d="M586.458 354.31L588.65 392.788H653.329L655.521 354.31H586.458Z" fill="#AD2F24"/>
<path d="M620.99 378.427C619.053 378.427 617.482 376.857 617.482 374.919C617.482 372.982 619.053 371.411 620.99 371.411C622.927 371.411 624.498 372.982 624.498 374.919C624.498 376.857 622.927 378.427 620.99 378.427Z" fill="#EF452F"/>
<path d="M631.406 400.9C631.626 400.9 631.845 400.9 631.955 400.9C641.711 401.01 650.152 407.807 652.345 417.125L653.003 419.756H660.567L661.334 400.9H631.406Z" fill="#AD2F24"/>
<path d="M610.578 400.9C610.359 400.9 610.14 400.9 610.03 400.9C600.273 401.01 591.832 407.806 589.64 417.124L588.982 419.755H581.418L580.651 400.9H610.578Z" fill="#AD2F24"/>
<path d="M640.503 207.412C640.503 207.412 649.054 209.823 658.482 197.655C665.278 188.775 677.337 169.92 694 169.591C694 169.591 674.268 161.04 656.837 169.701C639.297 178.471 629.979 201.053 640.503 207.412Z" fill="#4F9D5C"/>
<path d="M635.351 242.711C635.57 242.711 635.789 242.492 635.789 242.272C635.789 242.163 635.241 230.323 637.543 216.949C639.736 204.561 644.778 188.337 656.947 180.773C657.166 180.663 657.276 180.334 657.056 180.115C656.947 179.896 656.618 179.786 656.399 180.005C650.917 183.404 646.423 188.775 642.915 196.12C640.174 201.93 637.982 208.837 636.666 216.839C634.254 230.323 634.912 242.272 634.912 242.382C634.912 242.492 635.131 242.711 635.351 242.711Z" fill="#3C7341"/>
<path d="M633.926 180.444C633.926 180.444 625.265 178.471 622.963 163.123C621.319 152.051 619.894 129.688 605.533 121.356C605.533 121.356 627.019 123.439 637.982 139.554C648.944 155.669 646.204 180.005 633.926 180.444Z" fill="#4F9D5C"/>
<path d="M622.085 243.698C622.305 243.698 622.414 243.589 622.524 243.369C622.633 243.26 628.334 227.474 632.5 208.07C634.911 196.669 636.446 186.255 636.775 177.046C637.323 165.536 636.117 155.998 633.377 148.763C633.267 148.544 633.048 148.434 632.828 148.544C632.609 148.654 632.5 148.873 632.609 149.092C638.748 165.426 635.459 190.092 631.623 207.851C627.457 227.255 621.756 242.931 621.756 243.04C621.647 243.26 621.756 243.589 621.976 243.589C621.976 243.698 621.976 243.698 622.085 243.698Z" fill="#3C7341"/>
<path d="M618.797 187.898C618.797 187.898 610.027 189.104 602.353 175.62C596.872 165.864 587.554 145.583 571.11 142.843C571.11 142.843 591.939 137.142 607.944 148.214C624.059 159.506 630.088 183.075 618.797 187.898Z" fill="#4F9D5C"/>
<path d="M617.481 243.697C617.7 243.697 617.919 243.588 617.919 243.369C617.919 243.259 620.879 228.35 620.879 210.591C620.879 200.176 620.002 190.749 618.138 182.636C615.836 172.551 611.999 164.439 606.847 158.519C606.628 158.3 606.408 158.3 606.189 158.519C605.97 158.738 605.97 158.958 606.189 159.177C617.7 172.222 620.112 194.257 620.002 210.591C619.892 228.24 617.042 243.04 617.042 243.149C616.932 243.369 617.152 243.588 617.481 243.697C617.371 243.697 617.481 243.697 617.481 243.697Z" fill="#3C7341"/>
<path d="M603.668 208.508C603.668 208.508 595.227 211.468 585.142 199.738C577.797 191.297 564.642 173.209 547.979 173.866C547.979 173.866 567.163 164.11 585.142 171.893C603.12 179.567 613.754 201.602 603.668 208.508Z" fill="#4F9D5C"/>
<path d="M611.89 243.697C612.109 243.697 612.329 243.478 612.329 243.259C612.329 243.149 612.548 232.954 609.478 220.347C607.615 213.003 605.093 206.206 601.805 200.286C597.639 192.832 592.377 186.693 586.128 182.088C585.909 181.979 585.69 181.979 585.471 182.198C585.361 182.417 585.361 182.636 585.58 182.856C599.503 193.27 605.751 209.166 608.601 220.676C611.671 233.173 611.452 243.149 611.452 243.259C611.452 243.478 611.561 243.697 611.89 243.697Z" fill="#3C7341"/>
<path d="M584.595 254.221C584.595 255.536 584.814 256.852 585.253 258.277C587.007 264.197 592.049 268.582 598.188 269.459C613.097 271.542 628.445 271.432 644.231 269.349C651.137 268.472 656.728 263.21 657.824 256.304C658.043 255.098 658.043 254.002 657.934 252.796C657.605 248.849 655.522 245.013 651.576 241.176H590.953C586.568 245.341 584.595 249.726 584.595 254.221Z" fill="#FFD66B"/>
<path d="M619.017 260.25C638.31 260.25 650.808 256.523 657.824 253.344C658.043 253.234 658.153 253.015 658.043 252.796C657.933 252.577 657.714 252.467 657.495 252.577C650.479 255.646 638.201 259.373 619.017 259.373C605.423 259.373 594.022 257.51 585.142 253.892C584.923 253.783 584.594 253.892 584.594 254.111C584.485 254.331 584.594 254.66 584.814 254.66C593.803 258.387 605.313 260.25 619.017 260.25Z" fill="#F68407"/>
<path d="M40.7491 118.616H47.9844V193.599H40.7491V118.616Z" fill="#F2B441"/>
<path d="M40.6395 122.233V128.701L47.9844 130.894V122.233H40.6395Z" fill="#F28D32"/>
<path d="M4.90079 120.918C31.1011 124.974 57.411 124.974 83.6113 120.918L64.9751 69.2849C51.1624 66.8731 37.3497 66.8731 23.6466 69.2849L4.90079 120.918Z" fill="#1B6BFE"/>
<path d="M44.5843 116.972C56.5334 116.972 68.3729 116.314 80.6509 115.108C81.0894 115.108 81.3086 114.67 81.3086 114.341C81.3086 113.902 80.8701 113.683 80.5413 113.683C56.3142 116.204 33.293 116.204 8.18896 113.683C7.75046 113.683 7.42157 113.902 7.42157 114.341C7.42157 114.779 7.64079 115.108 8.07929 115.108C20.5765 116.314 32.6352 116.972 44.5843 116.972Z" fill="#1B48CA"/>
<path d="M70.4566 115.985C70.5663 115.985 70.5663 115.985 70.6759 115.985C71.1144 115.876 71.3336 115.437 71.224 115.108L59.7134 68.9564C59.6038 68.5179 59.1652 68.2987 58.8364 68.4083C58.3979 68.5179 58.1786 68.9564 58.2882 69.2853L69.7988 115.437C69.7988 115.766 70.1278 115.985 70.4566 115.985Z" fill="#1B48CA"/>
<path d="M18.0557 115.985C18.3846 115.985 18.7134 115.766 18.823 115.437L30.224 69.2853C30.3336 68.8468 30.1144 68.5179 29.6759 68.4083C29.2374 68.2987 28.9085 68.5179 28.7989 68.9564L17.3979 115.108C17.2883 115.547 17.5075 115.876 17.946 115.985C17.946 115.985 17.9461 115.985 18.0557 115.985Z" fill="#1B48CA"/>
<path d="M44.2561 116.972C44.6945 116.972 45.0234 116.643 45.0234 116.204V68.2983C45.0234 67.8598 44.6945 67.5309 44.2561 67.5309C43.8176 67.5309 43.4887 67.8598 43.4887 68.2983V116.314C43.5983 116.643 43.9272 116.972 44.2561 116.972Z" fill="#1B48CA"/>
<path d="M26.4989 186.145V193.6H62.127V186.145L44.2581 181.98L26.4989 186.145Z" fill="#1B48CA"/>
<path d="M68.9213 183.733H67.6058V181.76L116.389 181.87C118.033 181.87 119.458 182.527 120.555 183.624C121.651 184.72 122.309 186.145 122.309 187.789C122.309 191.078 119.678 193.599 116.389 193.599L67.6058 193.49V191.845H68.9213V183.733Z" fill="#4F9D5C"/>
<path d="M68.5942 183.734V191.846L113.321 191.955C115.514 191.955 117.268 190.092 117.268 187.899C117.268 186.803 116.829 185.816 116.062 185.049C115.294 184.282 114.308 183.843 113.211 183.843L68.5942 183.734Z" fill="white"/>
<path d="M68.5944 185.817V187.023L112.225 187.132C112.554 187.132 112.883 186.803 112.883 186.474C112.883 186.146 112.554 185.817 112.225 185.817H68.5944Z" fill="#EAD6BF"/>
<path d="M68.5944 188.886V190.092L112.225 190.201C112.554 190.201 112.883 189.872 112.883 189.544C112.883 189.215 112.554 188.886 112.225 188.886H68.5944Z" fill="#EAD6BF"/>
<path d="M73.3061 172.004H71.9906V170.031L120.774 170.14C122.418 170.14 123.843 170.798 124.939 171.894C126.036 172.99 126.693 174.416 126.693 176.06C126.693 179.349 124.062 181.87 120.774 181.87L71.9906 181.76V180.116H73.3061V172.004Z" fill="#EF452F"/>
<path d="M72.977 172.003V180.116L117.704 180.225C119.896 180.225 121.65 178.362 121.65 176.169C121.65 175.073 121.212 174.086 120.444 173.319C119.677 172.551 118.691 172.113 117.594 172.113L72.977 172.003Z" fill="white"/>
<path d="M72.9792 174.087V175.293L116.61 175.403C116.939 175.403 117.268 175.074 117.268 174.745C117.268 174.416 116.939 174.087 116.61 174.087H72.9792Z" fill="#EAD6BF"/>
<path d="M72.9792 177.156V178.362L116.61 178.472C116.939 178.472 117.268 178.143 117.268 177.814C117.268 177.485 116.939 177.156 116.61 177.156H72.9792Z" fill="#EAD6BF"/>
<path d="M64.8667 160.274H63.5512V158.301L112.334 158.41C113.979 158.41 115.404 159.068 116.5 160.164C117.596 161.261 118.254 162.686 118.254 164.33C118.254 167.619 115.623 170.14 112.334 170.14L63.5512 170.031V168.386H64.8667V160.274Z" fill="#1B6BFE"/>
<path d="M64.5375 160.274V168.386L109.264 168.496C111.457 168.496 113.211 166.632 113.211 164.439C113.211 163.343 112.772 162.357 112.005 161.589C111.238 160.822 110.251 160.383 109.155 160.383L64.5375 160.274Z" fill="white"/>
<path d="M64.5378 162.357V163.563L108.168 163.672C108.497 163.672 108.826 163.344 108.826 163.015C108.826 162.686 108.497 162.357 108.168 162.357H64.5378Z" fill="#EAD6BF"/>
<path d="M64.5378 165.426V166.632L108.168 166.742C108.497 166.742 108.826 166.413 108.826 166.084C108.826 165.755 108.497 165.426 108.168 165.426H64.5378Z" fill="#EAD6BF"/>
<path opacity="0.2" d="M68.592 425.346C30.7519 425.346 0.0765228 422.647 0.0765228 419.317C0.0765228 415.987 30.7519 413.287 68.592 413.287C106.432 413.287 137.107 415.987 137.107 419.317C137.107 422.647 106.432 425.346 68.592 425.346Z" fill="#605BFF"/>
<path d="M8.84673 198.094L23.7557 419.536H113.538L128.447 198.094H8.84673Z" fill="#FAB623"/>
<path d="M9.83266 212.674L127.021 219.471L127.898 207.193H9.39414L9.83266 212.674Z" fill="#F68407"/>
<path d="M4.35123 207.193H132.941C134.476 207.193 135.682 205.987 135.682 204.452V196.34C135.682 194.805 134.476 193.599 132.941 193.599H4.35123C2.81648 193.599 1.61061 194.805 1.61061 196.34V204.452C1.61061 205.987 2.81648 207.193 4.35123 207.193Z" fill="#EDC85A"/>
<path d="M22.2221 232.188L25.1819 283.93H112.114L115.074 232.188H22.2221Z" fill="#F68407"/>
<path d="M68.5916 264.636C66.1698 264.636 64.2066 262.673 64.2066 260.251C64.2066 257.829 66.1698 255.866 68.5916 255.866C71.0133 255.866 72.9766 257.829 72.9766 260.251C72.9766 262.673 71.0133 264.636 68.5916 264.636Z" fill="#FAB623"/>
<path d="M26.2777 296.099L29.0183 343.347H108.277L111.018 296.099H26.2777Z" fill="#F68407"/>
<path d="M68.5916 325.917C66.1698 325.917 64.2066 323.953 64.2066 321.532C64.2066 319.11 66.1698 317.147 68.5916 317.147C71.0133 317.147 72.9766 319.11 72.9766 321.532C72.9766 323.953 71.0133 325.917 68.5916 325.917Z" fill="#FAB623"/>
<path d="M29.786 355.296L32.3075 398.707H104.989L107.4 355.296H29.786Z" fill="#F68407"/>
<path d="M68.5916 381.386C66.1698 381.386 64.2066 379.423 64.2066 377.001C64.2066 374.58 66.1698 372.616 68.5916 372.616C71.0133 372.616 72.9766 374.58 72.9766 377.001C72.9766 379.423 71.0133 381.386 68.5916 381.386Z" fill="#FAB623"/>
</svg>
